<?xml version="1.0" encoding="utf-8"?>
<!-- Generator: Adobe Illustrator 16.0.0, SVG Export Plug-In . SVG Version: 6.00 Build 0)  -->
<!DOCTYPE svg PUBLIC "-//W3C//DTD SVG 1.1//EN" "http://www.w3.org/Graphics/SVG/1.1/DTD/svg11.dtd">
<svg version="1.1" id="Layer_1" xmlns="http://www.w3.org/2000/svg" xmlns:xlink="http://www.w3.org/1999/xlink" x="0px" y="0px"
	 width="3701.832px" height="1121.401px" viewBox="3.79 581.099 3701.832 1121.401"
	 enable-background="new 3.79 581.099 3701.832 1121.401" xml:space="preserve">
<g id="Layer_1_2_">
	<g id="Layer_1_1_" display="none">
		<line display="inline" fill="#3D3732" x1="1742.788" y1="1208.468" x2="1742.788" y2="1205.333"/>
		<rect x="1704.14" y="1186.533" display="inline" fill="#3D3732" width="2.089" height="18.8"/>
		<polyline display="inline" fill="#3D3732" stroke="#010202" stroke-width="3" stroke-miterlimit="10" points="1730.776,1184.442 
			1730.776,1206.411 1717.707,1184.939 1704.73,1206.165 		"/>
		<polygon display="inline" fill="#3D3732" points="1703.096,1184.442 1692.649,1184.442 1689.515,1184.442 1689.515,1187.576 
			1689.515,1205.333 1692.649,1205.333 1692.649,1187.576 1703.096,1187.576 1703.096,1205.333 1706.23,1205.333 1706.23,1187.576 
			1706.23,1184.442 		"/>
		<polyline display="inline" fill="#3D3732" stroke="#010202" stroke-width="3" stroke-miterlimit="10" points="1664.969,1184.442 
			1664.969,1206.368 1678.239,1184.939 1690.318,1206.187 		"/>
		<line display="inline" fill="#3D3732" x1="1694.738" y1="1208.468" x2="1694.738" y2="1205.333"/>
		<g display="inline">
			<rect x="1666.536" y="1205.333" fill="#3D3732" width="28.202" height="9.402"/>
		</g>
		<g display="inline">
			<rect x="1657.135" y="1205.333" fill="#3D3732" width="85.652" height="11.491"/>
			<polygon fill="#3D3732" points="1743.384,1179.222 1659.841,1179.222 1659.982,1184.442 1743.522,1184.442 			"/>
		</g>
	</g>
	<g id="Layer_2" display="none">
		<rect x="1257.083" y="866.909" display="inline" fill="#3D3732" width="879.375" height="401.39"/>
		<polygon display="inline" fill="#3D3732" stroke="#FFFFFF" stroke-width="2.8347" stroke-miterlimit="10" points="
			1282.152,950.47 1320.382,950.47 1320.382,1150.979 1442.238,950.47 1481.463,950.47 1600.731,1159.139 1600.731,1205.333 
			1580.82,1205.333 1462.746,993.679 1331.731,1205.333 1282.152,1205.333 		"/>
		<polygon display="inline" fill="#3D3732" stroke="#FFFFFF" stroke-width="2.8347" stroke-miterlimit="10" points="
			2123.199,950.47 2084.972,950.47 2084.972,1150.979 1963.909,950.47 1926.281,950.47 1804.619,1149.048 1804.619,1205.333 
			1814.974,1205.333 1944.398,992.684 2074.019,1205.333 2123.199,1205.333 		"/>
		<polygon display="inline" fill="#3D3732" stroke="#FFFFFF" stroke-width="2.8347" stroke-miterlimit="10" points="1766.39,950.47 
			1638.96,950.47 1600.731,950.47 1600.731,988.701 1600.731,1205.333 1638.96,1205.333 1638.96,988.701 1766.39,988.701 
			1766.39,1205.333 1804.619,1205.333 1804.619,988.701 1804.619,950.47 		"/>
	</g>
	<rect x="-84.084" y="222.315" display="none" fill="#3D3732" width="3870.531" height="1766.705"/>
	<path fill="#3D3732" d="M-83.561-922.865v2902.876h3870.528V-922.865H-83.561z M3705.622,1702.871h-216.463L2918.64,766.9
		l-569.654,935.971h-45.57h-168.272V749.367h-560.875v953.504h-168.273h-87.639l-519.693-931.59L222.01,1702.87H3.79V581.099
		h168.272v882.524l536.338-882.524h172.65l524.945,918.454V749.367V581.099h168.273h560.879h168.272v168.271v705.771
		l535.475-874.042h165.626l532.841,882.524V581.099h168.26V1702.871L3705.622,1702.871z"/>
</g>
</svg>
