<?xml version="1.0" encoding="utf-8"?>
<!-- Generator: Adobe Illustrator 16.0.0, SVG Export Plug-In . SVG Version: 6.00 Build 0)  -->
<!DOCTYPE svg PUBLIC "-//W3C//DTD SVG 1.1//EN" "http://www.w3.org/Graphics/SVG/1.1/DTD/svg11.dtd">
<svg version="1.1" xmlns="http://www.w3.org/2000/svg" xmlns:xlink="http://www.w3.org/1999/xlink" x="0px" y="0px"
	 width="3705.545px" height="1970px" viewBox="0 0 3705.545 1900" enable-background="new 0 0 3705.545 1980" xml:space="preserve">
<g id="Layer_2_2_">
	<rect x="0" fill="#F8EDE8" width="45.272" height="1980"/>
</g>
<g id="Layer_1">
	<g id="Layer_1_1_" display="none">
		<line display="inline" fill="#F8EDE8" x1="1749" y1="1232.719" x2="1749" y2="1229.719"/>
		<rect x="1712" y="1211.719" display="inline" fill="#F8EDE8" width="2" height="18"/>
		<polyline display="inline" fill="#F8EDE8" stroke="#010202" stroke-width="3" stroke-miterlimit="10" points="1737.5,1209.719 
			1737.5,1230.75 1724.989,1210.193 1712.565,1230.514 		"/>
		<polygon display="inline" fill="#F8EDE8" points="1711,1209.719 1700.999,1209.719 1697.999,1209.719 1697.999,1212.719 
			1697.999,1229.719 1700.999,1229.719 1700.999,1212.719 1711,1212.719 1711,1229.719 1714,1229.719 1714,1212.719 1714,1209.719 
					"/>
		<polyline display="inline" fill="#F8EDE8" stroke="#010202" stroke-width="3" stroke-miterlimit="10" points="1674.499,1209.719 
			1674.499,1230.709 1687.203,1210.193 1698.766,1230.535 		"/>
		<line display="inline" fill="#F8EDE8" x1="1702.999" y1="1232.719" x2="1702.999" y2="1229.719"/>
		<g display="inline">
			<rect x="1675.999" y="1229.719" fill="#F8EDE8" width="27" height="9"/>
		</g>
		<g display="inline">
			<rect x="1666.999" y="1229.719" fill="#F8EDE8" width="82.001" height="11"/>
			<polygon fill="#F8EDE8" points="1749.571,1204.719 1669.589,1204.719 1669.724,1209.719 1749.704,1209.719 			"/>
		</g>
	</g>
	<g id="Layer_2" display="none">
		<rect x="1283.999" y="905.719" display="inline" fill="#F8EDE8" width="841.891" height="384.281"/>
		<polygon display="inline" fill="#F8EDE8" stroke="#FFFFFF" stroke-width="2.8347" stroke-miterlimit="10" points="
			1307.999,985.719 1344.6,985.719 1344.6,1177.68 1461.261,985.719 1498.815,985.719 1612.998,1185.494 1612.998,1229.719 
			1593.936,1229.719 1480.895,1027.086 1355.465,1229.719 1307.999,1229.719 		"/>
		<polygon display="inline" fill="#F8EDE8" stroke="#FFFFFF" stroke-width="2.8347" stroke-miterlimit="10" points="
			2113.196,985.719 2076.598,985.719 2076.598,1177.68 1960.697,985.719 1924.671,985.719 1808.197,1175.832 1808.197,1229.719 
			1818.11,1229.719 1942.017,1026.133 2066.113,1229.719 2113.196,1229.719 		"/>
		<polygon display="inline" fill="#F8EDE8" stroke="#FFFFFF" stroke-width="2.8347" stroke-miterlimit="10" points="
			1771.597,985.719 1649.599,985.719 1612.998,985.719 1612.998,1022.32 1612.998,1229.719 1649.599,1229.719 1649.599,1022.32 
			1771.597,1022.32 1771.597,1229.719 1808.197,1229.719 1808.197,1022.32 1808.197,985.719 		"/>
	</g>
	<rect x="-0.001" y="288.601" display="none" fill="#F8EDE8" width="3705.549" height="1691.399"/>
	<path fill="#F8EDE8" d="M0.5-807.765v2779.14h3705.545v-2779.14H0.5z M3628.168,1706.049h-207.235l-546.201-896.075
		l-545.374,896.075h-43.627H2124.63V793.188h-536.965v912.861h-161.101h-83.903L845.12,814.168l-552.074,891.88H84.128V632.092
		h161.1v844.906l513.477-844.906h165.291l502.569,879.304V793.188V632.092h161.101h536.969h161.102v161.097v675.688l512.649-836.785
		h158.567l510.128,844.906V632.092h161.088V1706.049L3628.168,1706.049z"/>
</g>
</svg>
