<?xml version="1.0" encoding="utf-8"?>
<!-- Generator: Adobe Illustrator 16.0.0, SVG Export Plug-In . SVG Version: 6.00 Build 0)  -->
<!DOCTYPE svg PUBLIC "-//W3C//DTD SVG 1.1//EN" "http://www.w3.org/Graphics/SVG/1.1/DTD/svg11.dtd">
<svg version="1.1" xmlns="http://www.w3.org/2000/svg" xmlns:xlink="http://www.w3.org/1999/xlink" x="0px" y="0px"
preserveAspectRatio="none"
	 width="3705.545px" height="1980px" viewBox="-1284 -694.72 3705.545 1980" enable-background="new -1284 -694.72 3705.545 1980"
	 xml:space="preserve">
<g id="Layer_1">
	<g id="Layer_1_1_" display="none">
		<line display="inline" fill="none" x1="465.001" y1="538" x2="465.001" y2="535"/>
		<rect x="428.001" y="517" display="inline" fill="#010202" width="2" height="18"/>
		<polyline display="inline" fill="none" stroke="#010202" stroke-width="3" stroke-miterlimit="10" points="453.501,515 
			453.501,536.031 440.99,515.474 428.566,535.794 		"/>
		<polygon display="inline" fill="#010202" points="427.001,515 417,515 414,515 414,518 414,535 417,535 417,518 427.001,518 
			427.001,535 430.001,535 430.001,518 430.001,515 		"/>
		<polyline display="inline" fill="none" stroke="#010202" stroke-width="3" stroke-miterlimit="10" points="390.5,515 
			390.5,535.99 403.204,515.474 414.767,535.816 		"/>
		<line display="inline" fill="none" x1="419" y1="538" x2="419" y2="535"/>
		<g display="inline">
			<rect x="392" y="535" fill="#FFFFFF" width="27" height="9"/>
		</g>
		<g display="inline">
			<rect x="383" y="535" fill="#FFFFFF" width="82.001" height="11"/>
			<polygon fill="#FFFFFF" points="465.572,510 385.59,510 385.725,515 465.706,515 			"/>
		</g>
	</g>
	<g id="Layer_2" display="none">
		<rect x="0" y="211" display="inline" fill="#333232" width="841.891" height="384.281"/>
		<polygon display="inline" fill="#333232" stroke="#FFFFFF" stroke-width="2.8347" stroke-miterlimit="10" points="24,291 
			60.601,291 60.601,482.96 177.262,291 214.816,291 328.999,490.775 328.999,535 309.937,535 196.896,332.367 71.466,535 24,535 		
			"/>
		<polygon display="inline" fill="#333232" stroke="#FFFFFF" stroke-width="2.8347" stroke-miterlimit="10" points="829.197,291 
			792.599,291 792.599,482.96 676.698,291 640.672,291 524.198,481.113 524.198,535 534.111,535 658.018,331.414 782.114,535 
			829.197,535 		"/>
		<polygon display="inline" fill="#333232" stroke="#FFFFFF" stroke-width="2.8347" stroke-miterlimit="10" points="487.598,291 
			365.6,291 328.999,291 328.999,327.601 328.999,535 365.6,535 365.6,327.601 487.598,327.601 487.598,535 524.198,535 
			524.198,327.601 524.198,291 		"/>
	</g>
	<g id="Layer_2_copy">
		<rect x="-1284" y="-406.118" display="none" fill="#F2F2F2" width="3705.549" height="1691.398"/>
		<path fill="#F2F2F2" d="M-1284-1493.859v2779.14h3705.545v-2779.14H-1284z M2343.668,1019.955h-207.235L1590.232,123.88
			l-545.374,896.075h-43.627H840.13V107.094H303.165v912.861h-161.1H58.161L-439.38,128.074l-552.074,891.881h-208.918V-54.002
			h161.1v844.905l513.476-844.905h165.291l502.57,879.304V107.094V-54.002h161.1h536.969h161.102v161.097v675.688l512.649-836.785
			h158.568l510.127,844.905V-54.002h161.088V1019.955L2343.668,1019.955z"/>
	</g>
</g>
</svg>
