<?xml version="1.0" encoding="utf-8"?>
<!-- Generator: Adobe Illustrator 16.0.0, SVG Export Plug-In . SVG Version: 6.00 Build 0)  -->
<!DOCTYPE svg PUBLIC "-//W3C//DTD SVG 1.1//EN" "http://www.w3.org/Graphics/SVG/1.1/DTD/svg11.dtd">
<svg version="1.1" id="Layer_1" xmlns="http://www.w3.org/2000/svg" xmlns:xlink="http://www.w3.org/1999/xlink" x="0px" y="0px"
	 width="438.5px" height="219px" viewBox="0 0 438.5 219" enable-background="new 0 0 438.5 219" xml:space="preserve">
<g>
	<g>
		<g>
			<path fill="#7C2142" d="M103.123,45.99c-7.425,8.98-14.824,18.109-22.126,27.232L70.143,86.968l-5.306,6.911
				c-1.765,2.304-3.566,4.604-5.23,6.917l-5.091,6.928c-0.889,1.165-1.607,2.286-2.372,3.417l-2.281,3.388l-1.144,1.692
				l-0.572,0.846l-0.421,0.712c-0.568,0.943-1.063,1.92-1.54,2.895c-0.443,0.984-0.884,1.971-1.221,2.958
				c-0.192,0.517-0.198,0.568-0.275,0.805c-0.059,0.202-0.115,0.405-0.164,0.609c-0.38,1.605-0.453,3.451,0.51,4.876
				c0.979,1.425,2.957,1.792,4.535,1.376c0.592-0.252,1.152-0.57,1.71-0.89l0.825-0.489l2.623-1.611l2.76-1.738l3.662-2.354
				c3.232-2.107,6.458-4.232,9.679-6.404c6.438-4.315,12.893-8.8,19.389-13.33l9.732-6.785l4.856-3.39l2.421-1.692l1.207-0.844
				l0.602-0.42l0.484-0.227l-1.876,21.368l-0.913,10.693c-0.283,3.535-0.542,7.042-0.756,10.512
				c-0.21,3.471-0.401,6.921-0.518,10.344c-0.074,1.716-0.098,3.42-0.142,5.129l0.088,1.276l0.096,0.505v-0.1
				c0-0.253-0.1,0.02-0.098,0.141c0.004,0.568-0.034,1.137,0.007,1.704c0.052,0.562,0.057,1.146,0.294,1.665
				c0.759,1.022,2.127,1.267,3.327,1.222c0.617-0.026,1.223-0.125,1.821-0.273c0.68-0.188,0.827-0.189,2.613-0.926
				c2.807-1.187,5.512-2.861,7.285-4.521c0.431-0.408,0.829-0.808,1.11-1.163c0.19-0.192,0.203-0.308,0.334-0.45l0.082-0.099
				l0.098-0.171l0.204-0.338c0.57-0.97,1.232-2.392,1.837-3.949c1.204-3.202,2.257-6.913,3.133-10.762
				c0.888-3.849,1.636-7.847,2.281-11.898c0.329-2.023,0.622-4.067,0.904-6.116l0.4-3.082l0.592-5.092
				c0.796-7.347,1.217-14.989,1.757-22.505c0.387-0.114,0.964-0.031,1.457-0.035l1.532,0.042l3.064,0.085l6.128,0.17l12.257,0.34
				l21.246,0.589l24.514,0.68l12.257,0.34l6.129,0.17l0.766,0.021c0.258,0.006,0.543,0.006,0.631,0.054l0.889,0.218l1.032,0.224
				l0.52,0.112l0.588,0.115c-7.172,7.885-14.834,16.295-21.675,24.126l-2.521,2.937l-2.25,2.887
				c-1.568,1.926-2.82,3.846-4.188,5.768c-0.709,0.954-1.254,1.941-1.862,2.915l-1.769,2.904l-0.818,1.575
				c-0.277,0.527-0.564,1.065-0.736,1.496l-0.615,1.371c-0.215,0.459-0.316,0.859-0.487,1.289c-0.333,0.777-0.598,1.84-0.894,2.816
				c-0.28,0.991-0.48,2.001-0.711,3.003c-0.149,1.015-0.392,2.02-0.473,3.041c-0.297,2.033-0.318,4.075-0.32,6.096
				c0.073,2.015,0.26,4.007,0.607,5.924c0.374,1.902,0.873,3.731,1.501,5.402c0.65,1.641,1.434,3.107,2.235,4.225
				c1.619,2.275,3.975,4.127,6.886,5.267c1.441,0.575,3.003,0.974,4.546,1.162c0.771,0.101,1.533,0.132,2.26,0.126
				c0.373,0.017,0.7-0.049,1.054-0.051c0.181,0.002,0.321-0.046,0.484-0.062c0.156-0.023,0.228-0.031,0.346-0.039
				c0.361-0.111,0.749-0.137,1.083-0.329c0.165-0.074,0.352-0.18,0.488-0.253c0.064-0.045,0.409-0.237,0.682-0.454
				c1.159-0.815,2.567-2.087,3.893-3.556c2.675-2.937,5.178-6.609,6.962-10.199c0.896-1.784,1.585-3.583,1.947-4.992
				c0.2-0.711,0.271-1.289,0.287-1.55c-0.006-0.042,0.021-0.138,0.014-0.136l-0.007,0.014l0.56-0.014
				c0.38-0.018,0.763-0.051,1.147-0.101c0.707-0.064,1.256-0.093,1.903-0.247l0.469-0.119l0.349-0.063
				c0.229-0.047,0.461-0.111,0.691-0.191c0.537-0.219,0.752-0.264,1.053-0.418l0.219-0.124c0.073-0.047,0.149-0.112,0.193-0.058
				c0.106,0.047,0.225,0.079,0.349,0.091c0.063,0.006,0.126,0.007,0.19,0.002c0.04-0.012,0.202,0.006,0.077-0.065l-0.386-0.315
				l-0.193-0.157l-0.097-0.079l-0.048-0.04c-7.948,11.845-2.212,3.28-3.99,5.922l-0.116-0.054c-0.147-0.069-0.284-0.197-0.396-0.288
				c-0.094,0-0.163-0.032-0.223-0.104c-0.029-0.031-0.025,0.028-0.031,0.019c0.003-0.015-0.011,0.038,0.008-0.04
				c0.027-0.108,0.05-0.22,0.069-0.336l0.026-0.175l0.023-0.079l0.038-0.176c0.021-0.125,0.033-0.267,0.033-0.422
				c-0.003-0.102-0.001-0.125,0.003-0.139l0.005-0.082c0-0.062-0.006-0.139-0.022-0.229c-0.003-0.03,0.003-0.042-0.021-0.113
				c0.034,0.096,0.018,0.038,0.044,0.093c0.021,0.04,0.038,0.063,0.048,0.074c0.005,0.005,0.008,0.007,0.008,0.006l0.038,0.05
				c0.05,0.058,0.035,0.034,0.094,0.089c0.016,0.013,0.021,0.015,0.016,0.008c0.014,0.01,0.047,0.031,0.051,0.031
				c0.017,0.008-0.016-0.011,0.005,0c0.034,0.016,0.057-0.128,0.064-0.127c-0.045-0.018,0.123-0.117,0.165-0.117h0.027l0.127,0.169
				c0.09,0.01,0.167,0.086,0.229,0.082c0.031-0.003,0.057,0.035,0.084,0.025c0.076-0.076,0.146-0.137,0.206-0.223
				c0.119-0.169,0.218-0.348,0.265-0.537c-0.036-0.081-0.078-0.155-0.128-0.229l0.137,0.467l0.282,0.954l0.141,0.477l0.035,0.119
				c-22.243,6.428-5.876,1.692-10.713,3.079l0.489-0.189c0.645-0.269,1.255-0.607,1.819-1.008c0.302-0.203,0.512-0.408,0.854-0.652
				l1.257-0.787c0.829-0.537,1.642-1.098,2.435-1.682c0.794-0.584,1.569-1.191,2.325-1.82c0.145-0.124,0.028-0.048,0.055-0.082
				c-0.013-0.014-0.001-0.001,0.003,0.003l0.028,0.032c0.218,0.28,1.022,1.163,1.76,1.89c1.533,1.539,3.287,3.137,5.072,4.648
				c3.583,3.021,7.397,5.849,11.145,8.052c0.932,0.539,1.866,1.076,2.769,1.515c0.457,0.239,0.907,0.461,1.342,0.645l0.499,0.226
				c0.131,0.067,0.196,0.084,0.29,0.123c0.702,0.28,1.437,0.5,2.192,0.56c0.75,0.061,1.536-0.066,2.175-0.484
				c0.643-0.422,1.036-1.106,1.36-1.783l4.008-7.773l1.202-2.33l2.009-3.979l4.149-8.223l4.135-8.232l4.054-8.289l4.054-8.289
				l2.027-4.144c0.682-1.329,1.339-2.973,2.034-3.671c5.173,7.887,10.535,16.132,15.8,23.876l1.987,2.878
				c0.663,0.955,1.346,1.843,2.018,2.768l2.024,2.749c0.676,0.914,1.383,1.771,2.073,2.66l2.083,2.645
				c0.329,0.432,0.726,0.894,1.116,1.37l0.642,0.76c0.776,0.912,1.548,1.842,2.337,2.693c0.785,0.866,1.565,1.767,2.356,2.552
				c0.787,0.81,1.575,1.657,2.353,2.353l1.164,1.103c0.386,0.36,0.751,0.626,1.123,0.948c0.364,0.293,0.753,0.656,1.091,0.9
				c0.326,0.217,0.646,0.441,0.964,0.671c0.15,0.106,0.332,0.252,0.455,0.331c0.1,0.05,0.197,0.105,0.292,0.166
				c0.2,0.101,0.397,0.214,0.613,0.295c0.413,0.197,0.878,0.309,1.343,0.416c0.937,0.194,1.955,0.205,2.877,0.017
				c0.468-0.078,0.904-0.221,1.302-0.391c0.404-0.159,0.769-0.358,1.078-0.588c0.317-0.218,0.599-0.451,0.842-0.738
				c0.256-0.274,0.475-0.563,0.655-0.909c0.206-0.326,0.36-0.73,0.51-1.179c0.03-0.118,0.065-0.233,0.106-0.349
				c0.038-0.121,0.055-0.304,0.089-0.451l0.048-0.233c0.007-0.063,0.022-0.023,0.021-0.171l-0.004-0.433l-0.017-1.732
				c-0.103-2.347-0.366-4.794-0.584-7.195c-0.225-2.389-0.511-4.758-0.794-7.127c-2.254-18.946-4.463-37.986-6.809-56.739
				l2.242,1.515c0.098,0.071,0.177,0.108,0.291,0.207l0.388,0.374l0.775,0.748l1.552,1.496l6.143,5.933l12.191,11.816l6.067,5.904
				c2.022,1.991,4.042,3.876,6.07,5.992l12.156,12.41c2.026,2.022,4.046,4.268,6.11,6.414l1.546,1.617l0.193,0.202l0.333,0.331
				l0.907,0.881l0.242,0.231l0.523,0.461c0.75,0.636,1.543,1.221,2.373,1.749c0.828,0.529,1.694,1.001,2.594,1.399
				c0.899,0.385,1.837,0.737,2.821,0.81c0.409,0.025,0.985-0.018,1.1-0.511c0.142-0.421,0.14-0.874,0.131-1.313
				c-0.031-0.885-0.167-1.762-0.32-2.633c-0.155-0.871-0.342-1.736-0.541-2.598l-0.312-1.29l-0.405-1.579
				c-3.064-11.637-6.627-23.322-10.338-35.038l-2.841-8.934c-0.963-3.125-1.899-6.386-2.698-9.796
				c-1.572-6.808-2.717-14.293-1.952-22.474c0.396-4.071,1.313-8.29,2.906-12.357c1.58-4.067,3.842-7.938,6.554-11.295
				c2.709-3.365,5.826-6.231,9.07-8.618c3.256-2.36,6.623-4.269,10.004-5.922l-2.152-4.517c-3.622,1.769-7.257,3.827-10.811,6.404
				c-3.545,2.606-6.993,5.77-10.01,9.516c-3.02,3.736-5.554,8.073-7.316,12.614c-1.777,4.541-2.793,9.228-3.225,13.695
				c-0.835,8.979,0.42,16.97,2.061,24.094c0.835,3.568,1.806,6.942,2.789,10.133l2.852,8.967
				c3.699,11.678,7.24,23.297,10.268,34.797l0.107,0.41l-10.85-11.305l-14.192-14.364c-2.373-2.455-4.706-4.615-7.058-6.91
				l-7.041-6.798l-28.087-27.078l8.118,67.005c0.339,2.799,0.679,5.597,0.975,8.421c0.288,2.84,0.674,5.744,0.882,8.512l0.078,2.038
				l0.02,0.509c0.006,0.117,0,0.093-0.002,0.11l-0.008,0.033l-0.026,0.135c-0.018,0.08-0.02,0.207-0.037,0.251
				c-0.02,0.036-0.032,0.073-0.038,0.113c-0.049,0.132-0.067,0.213-0.091,0.22c-0.001,0.028,0.002,0.009-0.004,0.009
				c0.007,0.012,0.012-0.004-0.006,0.004c-0.008,0.019-0.057,0.048-0.142,0.074c-0.076,0.036-0.187,0.082-0.327,0.096
				c-0.269,0.063-0.632,0.056-0.922-0.006c-0.143-0.041-0.287-0.055-0.391-0.12c-0.061-0.016-0.104-0.054-0.154-0.073
				c-0.021-0.019-0.043-0.031-0.071-0.037l-0.315-0.241c-0.23-0.173-0.466-0.336-0.71-0.49c-0.263-0.187-0.613-0.52-0.921-0.766
				c-0.323-0.281-0.627-0.494-0.977-0.822l-1.062-1.007c-0.702-0.623-1.448-1.429-2.188-2.188c-0.738-0.731-1.489-1.6-2.238-2.425
				c-0.751-0.809-1.498-1.71-2.247-2.589l-0.645-0.767c-0.462-0.567-0.933-1.115-1.312-1.617l-2.425-3.095
				c-0.803-1.041-1.627-2.042-2.413-3.116l-2.353-3.231c-0.782-1.088-1.575-2.129-2.348-3.257l-2.311-3.404
				c-1.542-2.231-3.082-4.616-4.621-6.983l-4.645-7.13l-9.25-14.204l-9.443,19.309l-4.736,9.683l-4.813,9.622l-4.827,9.612
				l-2.322,4.619l-1.193,2.312l-3.648,7.082l-4.019-2.091c-3.419-2.007-7.053-4.693-10.448-7.558
				c-1.69-1.43-3.361-2.955-4.759-4.358c-0.37-0.362-0.645-0.665-0.95-0.981l-0.328-0.365c-0.072-0.077-0.082-0.093-0.083-0.097
				l-0.013-0.016l-0.004-0.004c-0.037,0.028,0.078-0.067-0.085,0.062l-1.354,1.061c-1.971,1.442-3.271,2.673-4.902,3.845
				c-0.793,0.584-1.605,1.145-2.435,1.682l-1.257,0.787c-0.343,0.244-0.553,0.449-0.854,0.652c-0.564,0.4-1.175,0.739-1.819,1.008
				l-0.489,0.189c5.476-1.575-12.961,3.771,12.146-3.501l-0.108-0.098l-0.433-0.391l-0.865-0.781l-0.427-0.379
				c-0.013,0.097-0.033,0.194-0.063,0.29c-0.057,0.191-0.147,0.378-0.27,0.548c-0.061,0.085-0.13,0.166-0.206,0.242
				c-0.027,0.01-0.053,0.01-0.084,0.013c-0.063,0.004-0.14-0.148-0.229-0.158L224.881,152h-0.027c-0.042,0-0.21,0.1-0.165,0.117
				c-0.008-0.001-0.03,0.067-0.064,0.051c-0.021-0.011,0.012,0.046-0.005,0.038c-0.004,0-0.037-0.002-0.051-0.012
				c0.006,0.006,0,0.014-0.016,0.001c-0.059-0.055-0.044-0.027-0.094-0.085l-0.038-0.047c0,0.001-0.003,0-0.008-0.005
				c-0.01-0.01-0.026-0.034-0.048-0.073c-0.026-0.056-0.01,0.003-0.044-0.093c0.024,0.071,0.019,0.083,0.021,0.113
				c0.017,0.09,0.022,0.167,0.022,0.229l-0.005,0.082c-0.004,0.014-0.006,0.038-0.003,0.139c0,0.156-0.012,0.297-0.033,0.422
				l-0.038,0.176l-0.023,0.079l-0.026,0.175c-0.039,0.232-0.093,0.448-0.158,0.647c-0.033,0.099-0.069,0.194-0.107,0.284
				c-0.04,0.104-0.076,0.136-0.129,0.326c-0.203,0.624-0.475,1.173-0.79,1.641c-0.168,0.298-0.38,0.73-0.593,1.056
				c-0.107,0.173-0.22,0.341-0.335,0.503l-0.175,0.24l-0.082,0.105l-0.002-0.007c-0.003-0.01-0.004-0.021-0.002-0.035
				c3.146-4.405-7.042,9.854,7.053-9.878l0.048,0.04l0.097,0.079l0.193,0.157l0.386,0.315c0.125,0.071-0.037,0.053-0.077,0.065
				c-0.064,0.004-0.128,0.003-0.19-0.002c-0.124-0.012-0.242-0.044-0.349-0.091c-0.044-0.054-0.12,0.011-0.193,0.058l-0.219,0.124
				c-0.301,0.154-0.516,0.199-1.053,0.418c-1.718,0.571-4.635,0.865-8.275,0.664l-1.31-0.134l-0.365-0.025l-0.161-0.012
				l-0.002,0.004l-0.005,0.016c-0.013,0.033,0.013,0.017-0.009,0.093c-0.049,0.159-0.041,0.281-0.13,0.55
				c-0.239,0.948-0.804,2.477-1.588,4.026c-1.549,3.131-3.85,6.503-6.172,9.043c-1.142,1.272-2.335,2.324-3.094,2.85
				c-0.17,0.144-0.426,0.276-0.29,0.2c0.038-0.029,0.011-0.008,0.021-0.013c0.011,0.033-0.009-0.041,0.004,0.008
				c-0.035-0.007-0.003-0.013-0.091,0.001c-0.097,0.006-0.163,0.046-0.283,0.039c-0.23-0.009-0.424,0.05-0.682,0.031
				c-0.487,0.002-1.024-0.016-1.578-0.09c-1.107-0.134-2.258-0.429-3.292-0.841c-2.103-0.822-3.641-2.082-4.678-3.538
				c-0.505-0.703-1.113-1.805-1.635-3.117c-0.503-1.348-0.924-2.882-1.246-4.504c-0.296-1.642-0.458-3.373-0.524-5.134
				c0.008-1.771,0.017-3.566,0.284-5.362c0.065-0.901,0.29-1.789,0.416-2.688c0.207-0.885,0.381-1.78,0.63-2.657
				c0.263-0.858,0.503-1.833,0.771-2.428c0.145-0.354,0.209-0.66,0.399-1.062l0.536-1.192c0.101-0.214,0.145-0.368,0.29-0.633
				l0.393-0.748l0.783-1.498l2.081-3.376c0.718-1.135,1.354-2.283,2.203-3.396c1.634-2.242,3.115-4.475,5.011-6.734l2.708-3.381
				l3.07-3.462c8.352-9.233,17.752-19.351,26.4-28.791l-109.333-3.032l-0.885,13.261c-0.281,4.428-0.633,8.78-1.089,13.085
				l-0.673,5.841l-0.395,3.03c-0.276,2.011-0.564,4.018-0.887,5.997c-0.632,3.966-1.361,7.862-2.217,11.566
				c-0.84,3.704-1.852,7.231-2.929,10.095c-0.532,1.376-1.105,2.575-1.468,3.187c-0.042,0.064-0.08,0.129-0.117,0.196l-0.052,0.102
				l-0.021,0.007l-0.012,0.012l-0.004,0.007c0.002,0.003-0.008-0.001,0.005,0.009l0.267,0.209c0.354,0.281,0.704,0.57,1.048,0.869
				c0.324,0.26-2.524-2.016-1.323-1.053l-0.004,0.004l-0.008,0.008l-0.016,0.016l-0.03,0.032c-0.068,0.083-0.146,0.183-0.274,0.303
				c-0.089,0.114-0.255,0.249-0.389,0.386c-1.211,1.151-3.491,2.6-5.834,3.581l-1.107,0.475l0.096,0.4v0.289
				c0,0.122-0.099-0.068-0.097-0.186l-0.046-0.372l-0.009-1.487c0.055-1.995,0.072-3.983,0.165-5.988
				c0.146-3.997,0.377-8.032,0.639-12.096c0.265-4.063,0.584-8.178,0.937-12.332l1.13-12.588l2.26-25.154L92.745,96.641
				c-7.605,5.329-15.147,10.603-22.66,15.651c-3.758,2.543-7.521,5.027-11.289,7.488l-3.991,2.566l-2.721,1.714l-2.522,1.549
				l0.007-0.003l0.107-0.288c0.278-0.826,0.658-1.667,1.034-2.509c0.412-0.836,0.835-1.678,1.328-2.494l0.363-0.618l0.556-0.817
				l1.107-1.636l2.208-3.277c0.74-1.096,1.427-2.171,2.313-3.333l5.036-6.853c1.642-2.283,3.438-4.576,5.191-6.866l5.277-6.873
				l10.817-13.699c7.279-9.095,14.672-18.215,22.065-27.158L103.123,45.99z"/>
			<path fill="#BE90A1" d="M99.274,42.794c-7.457,9.019-14.862,18.155-22.188,27.307L66.196,83.894l-5.336,6.949
				c-1.774,2.317-3.582,4.625-5.269,6.968l-5.146,7.004c-0.891,1.167-1.642,2.334-2.431,3.501l-2.354,3.498l-1.18,1.748l-0.59,0.874
				l-0.478,0.807c-0.644,1.072-1.209,2.182-1.753,3.297c-0.51,1.126-1.011,2.257-1.405,3.407c-0.221,0.585-0.308,0.898-0.443,1.321
				c-0.117,0.403-0.23,0.809-0.327,1.218c-0.392,1.635-0.594,3.322-0.496,5.004c0.122,1.667,0.532,3.367,1.515,4.748
				c0.962,1.383,2.456,2.37,4.095,2.756c0.813,0.211,1.654,0.315,2.495,0.32c0.421,0.017,0.841-0.005,1.261-0.034
				c0.426,0.016,0.829-0.14,1.219-0.29c1.184-0.503,2.306-1.139,3.42-1.779l1.656-0.982l2.725-1.672l2.798-1.763l3.335-2.14
				c2.695-1.753,5.385-3.52,8.067-5.32c5.365-3.581,10.731-7.277,16.116-11.008l8.068-5.597l4.023-2.802l2.008-1.4l1.001-0.699
				l0.499-0.348l0.275,0.032l-1.492,17.582c-0.476,5.881-0.949,11.746-1.267,17.491c-0.159,2.877-0.304,5.743-0.391,8.593
				c-0.056,1.427-0.073,2.848-0.106,4.271l-0.01,2.286c0.01,1.137,0.033,2.274,0.115,3.409c0.103,1.123,0.161,2.292,0.637,3.33
				c0.709,1.016,1.85,1.662,3.018,2.024c1.18,0.375,2.431,0.454,3.661,0.419c1.234-0.053,2.459-0.251,3.657-0.545
				c1.246-0.321,2.158-0.597,4.025-1.377c3.271-1.392,6.403-3.292,8.739-5.461c0.573-0.541,1.117-1.089,1.56-1.637
				c0.26-0.275,0.381-0.53,0.591-0.787c0.193-0.22,0.381-0.616,0.578-0.911c0.78-1.327,1.53-2.973,2.207-4.712
				c1.331-3.539,2.426-7.436,3.336-11.43c0.922-3.994,1.687-8.093,2.347-12.23c0.336-2.067,0.635-4.149,0.922-6.234l0.407-3.135
				l0.51-4.342c0.673-6.125,1.094-12.432,1.541-18.666l0.198-0.122c0.061-0.045,0.2-0.007,0.296-0.015l0.639,0.018l1.276,0.036
				l2.554,0.071l5.107,0.142l10.214,0.283l18.468,0.512l20.428,0.566l10.214,0.283l5.107,0.142l0.639,0.018l0.318,0.009
				c0.068-0.004,0.094,0.007,0.093,0.028l0.031,0.049c0.088,0.131,0.196,0.264,0.293,0.396c0.268,0.269,0.469,0.533,0.81,0.806
				c-5.695,6.329-11.619,13.033-16.95,19.461l-1.971,2.412l-1.791,2.394c-1.242,1.592-2.265,3.2-3.368,4.801
				c-0.569,0.795-1.022,1.621-1.52,2.434l-1.456,2.433l-0.855,1.652c-0.288,0.552-0.584,1.109-0.79,1.612l-0.693,1.548
				c-0.238,0.517-0.377,1.011-0.575,1.516c-0.397,0.959-0.688,2.111-1.017,3.205c-0.311,1.104-0.539,2.231-0.792,3.349
				c-0.172,1.132-0.434,2.254-0.529,3.395c-0.326,2.271-0.36,4.559-0.356,6.831c0.08,2.268,0.292,4.521,0.69,6.715
				c0.426,2.182,1.003,4.305,1.756,6.3c0.779,1.97,1.737,3.799,2.835,5.332c1.104,1.53,2.448,2.936,3.975,4.115
				c1.534,1.179,3.271,2.142,5.12,2.881c1.85,0.737,3.821,1.241,5.799,1.482c0.988,0.127,1.977,0.172,2.942,0.162
				c0.489,0.016,0.949-0.057,1.426-0.071c0.474-0.039,0.916-0.126,1.287-0.161c0.734-0.173,1.49-0.298,2.168-0.65
				c0.722-0.353,1.236-0.618,2.071-1.228c1.56-1.104,3.183-2.597,4.69-4.261c3.028-3.333,5.734-7.306,7.753-11.355
				c1.01-2.019,1.822-4.086,2.307-5.958c0.258-0.938,0.394-1.81,0.438-2.495c0.001-0.158,0.029-0.348,0.022-0.479
				c-0.014-0.122-0.019-0.243-0.015-0.366c-0.009-0.101-0.038-0.138-0.035-0.213c0.004-0.043,0.001-0.066-0.011-0.051l-0.005,0.001
				c0,0-0.002,0,0.002-0.001l0.173-0.057c0.537-0.219,0.752-0.264,1.053-0.418l0.219-0.124c0.073-0.047,0.149-0.112,0.193-0.058
				c0.106,0.047,0.225,0.079,0.349,0.091c0.063,0.006,0.126,0.007,0.19,0.002c0.04-0.012,0.202,0.006,0.077-0.065l-0.386-0.315
				l-0.193-0.157l-0.097-0.079l-0.048-0.04c-1.802,3.959-0.517,1.087-0.927,1.966l-0.234-0.144
				c-0.311-0.187-0.607-0.418-0.901-0.611c-0.296-0.112-0.577-0.245-0.853-0.401c-1.1-0.401-1.945-0.418-2.701-0.174
				c-0.745,0.265-1.429,0.832-1.86,1.583c-0.046,0.097-0.136,0.172-0.173,0.276c-0.024,0.109-0.059,0.212-0.102,0.313
				c-0.13,0.187-0.105,0.428-0.171,0.642c-0.109,0.206-0.007,0.464-0.059,0.692l-0.025,0.176c0.015,0.015,0.024,0.029,0.029,0.043
				c0.01,0.028,0.002,0.056-0.024,0.09l-0.051,0.057l0.138,0.469l0.281,0.953l0.142,0.477l0.035,0.119
				c-12.652,3.601-3.218,0.908-5.914,1.664l0.489-0.189c0.645-0.269,1.255-0.607,1.819-1.008c0.302-0.203,0.512-0.408,0.854-0.652
				l1.257-0.787c1.187-0.784,0.764-0.499,0.848-0.543c0.017,0.018-0.012,0,0.08,0.104c0.462,0.581,1.313,1.494,2.129,2.306
				c1.668,1.674,3.507,3.346,5.386,4.938c3.771,3.177,7.765,6.146,11.84,8.546c1.018,0.589,2.039,1.174,3.057,1.671
				c0.509,0.266,1.017,0.516,1.521,0.731l0.662,0.299c0.197,0.098,0.362,0.151,0.541,0.224c1.403,0.561,2.872,1,4.384,1.118
				c1.501,0.122,3.074-0.131,4.351-0.969c1.284-0.844,2.072-2.211,2.722-3.565l4.366-8.465l6.377-12.52
				c1.15-2.282,2.328-4.548,3.456-6.843l3.372-6.894l3.372-6.895l1.687-3.447c0.57-1.038,1.098-2.715,1.728-2.559
				c4.255,6.471,8.676,13.121,13.086,19.436c1.104,1.576,2.214,3.142,3.352,4.631c1.126,1.517,2.255,3.027,3.429,4.472l1.742,2.194
				c0.279,0.361,0.601,0.738,0.92,1.122l0.638,0.754c0.804,0.944,1.601,1.903,2.428,2.797c0.821,0.906,1.632,1.84,2.475,2.68
				c0.835,0.86,1.664,1.75,2.517,2.517l1.268,1.198c0.423,0.394,0.849,0.712,1.27,1.075c0.421,0.34,0.848,0.734,1.26,1.035
				l1.218,0.853c0.198,0.137,0.411,0.304,0.595,0.42l0.514,0.296c0.35,0.183,0.7,0.371,1.07,0.518
				c0.726,0.33,1.509,0.54,2.297,0.713c1.582,0.325,3.257,0.341,4.833,0.026c3.191-0.62,5.812-2.453,7.275-5.067
				c0.387-0.646,0.679-1.374,0.928-2.138c0.116-0.382,0.237-0.772,0.315-1.235l0.07-0.331c0.01-0.07,0.028-0.077,0.032-0.198
				l0.011-0.356l0.046-1.426c0.003-1.926-0.138-3.916-0.285-5.877c-0.155-1.955-0.386-3.894-0.614-5.833
				c-1.811-15.512-3.556-31.085-5.498-46.473l1.219-0.116c0.059,0.009,0.086-0.041,0.17,0.017l0.325,0.314l0.651,0.628l1.303,1.255
				l5.163,5.001l10.245,10l5.093,5.01c1.695,1.687,3.401,3.296,5.083,5.073l10.122,10.455c1.688,1.713,3.36,3.573,5.09,5.343
				l1.299,1.329l0.163,0.167l0.246,0.242l0.64,0.616l0.335,0.313c0.326,0.306,0.724,0.644,1.088,0.96
				c1.501,1.271,3.087,2.44,4.746,3.496c1.657,1.058,3.389,2.002,5.187,2.798c1.8,0.77,3.674,1.476,5.643,1.621
				c0.44,0.019,0.89,0.008,1.315-0.116c0.452-0.091,0.749-0.489,0.884-0.905c0.283-0.843,0.28-1.747,0.264-2.626
				c-0.064-1.77-0.335-3.523-0.641-5.265c-0.313-1.742-0.684-3.473-1.084-5.196l-0.622-2.58l-0.704-2.747
				c-3.1-11.774-6.685-23.525-10.407-35.278c-1.816-5.785-3.918-11.843-5.438-18.361c-1.504-6.491-2.537-13.471-1.843-20.852
				c0.357-3.675,1.18-7.427,2.587-11.021c1.398-3.594,3.386-6.999,5.79-9.976c2.403-2.983,5.188-5.554,8.131-7.72
				c2.959-2.142,6.058-3.902,9.198-5.44l-2.152-4.516c-3.381,1.654-6.748,3.563-10.004,5.922c-3.244,2.386-6.361,5.253-9.07,8.618
				c-2.712,3.357-4.974,7.228-6.554,11.295c-1.593,4.067-2.511,8.287-2.906,12.357c-0.765,8.18,0.38,15.666,1.952,22.474
				c0.799,3.41,1.735,6.671,2.698,9.796l2.841,8.934c3.711,11.716,7.273,23.401,10.338,35.038l0.405,1.579l0.312,1.29
				c0.199,0.862,0.386,1.727,0.541,2.598c0.153,0.871,0.289,1.748,0.32,2.633c0.009,0.439,0.011,0.892-0.131,1.313
				c-0.114,0.493-0.69,0.536-1.1,0.511c-0.984-0.073-1.922-0.425-2.821-0.81c-0.899-0.398-1.766-0.87-2.594-1.399
				c-0.83-0.528-1.623-1.113-2.373-1.749l-0.523-0.461l-0.242-0.231l-0.907-0.881l-0.333-0.331l-0.193-0.202l-1.546-1.617
				c-2.064-2.146-4.084-4.392-6.11-6.414l-12.156-12.41c-2.028-2.116-4.048-4-6.07-5.992l-6.067-5.904L333.633,94.85l-6.143-5.933
				l-1.552-1.496l-0.775-0.748l-0.388-0.374c-0.114-0.099-0.193-0.136-0.291-0.207l-2.242-1.515
				c2.346,18.753,4.555,37.793,6.809,56.739c0.283,2.369,0.569,4.738,0.794,7.127c0.218,2.401,0.481,4.848,0.584,7.195l0.017,1.732
				l0.004,0.433c0.001,0.148-0.015,0.108-0.021,0.171l-0.048,0.233c-0.034,0.147-0.051,0.33-0.089,0.451
				c-0.041,0.115-0.076,0.231-0.106,0.349c-0.149,0.448-0.304,0.853-0.51,1.179c-0.181,0.346-0.399,0.635-0.655,0.909
				c-0.243,0.287-0.524,0.52-0.842,0.738c-0.31,0.229-0.674,0.429-1.078,0.588c-0.397,0.17-0.834,0.313-1.302,0.391
				c-0.922,0.188-1.94,0.177-2.877-0.017c-0.465-0.107-0.93-0.219-1.343-0.416c-0.216-0.082-0.413-0.194-0.613-0.295
				c-0.095-0.061-0.192-0.116-0.292-0.166c-0.123-0.078-0.305-0.225-0.455-0.331c-0.317-0.23-0.638-0.454-0.964-0.671
				c-0.338-0.244-0.727-0.607-1.091-0.9c-0.372-0.322-0.737-0.588-1.123-0.948l-1.164-1.103c-0.777-0.695-1.565-1.542-2.353-2.353
				c-0.791-0.786-1.571-1.687-2.356-2.552c-0.789-0.852-1.561-1.782-2.337-2.693l-0.642-0.76c-0.391-0.476-0.787-0.938-1.116-1.37
				l-2.083-2.645c-0.69-0.889-1.397-1.747-2.073-2.66l-2.024-2.749c-0.672-0.925-1.354-1.813-2.018-2.768l-1.987-2.878
				c-5.265-7.744-10.627-15.989-15.8-23.876c-0.695,0.699-1.353,2.342-2.034,3.671l-2.027,4.144l-4.054,8.289l-4.054,8.289
				l-4.135,8.232l-4.149,8.223l-2.009,3.979l-1.202,2.33l-4.008,7.773c-0.324,0.677-0.718,1.36-1.36,1.783
				c-0.639,0.418-1.425,0.545-2.175,0.484c-0.756-0.06-1.49-0.279-2.192-0.56c-0.094-0.039-0.159-0.056-0.29-0.123l-0.499-0.226
				c-0.435-0.184-0.885-0.406-1.342-0.645c-0.902-0.439-1.837-0.976-2.769-1.515c-3.747-2.203-7.562-5.031-11.145-8.052
				c-1.785-1.511-3.539-3.109-5.072-4.648c-0.737-0.727-1.542-1.61-1.76-1.89l-0.028-0.032c-0.004-0.004-0.016-0.017-0.003-0.003
				c-0.026,0.034,0.09-0.042-0.055,0.082c-0.756,0.629-1.531,1.236-2.325,1.82c-0.793,0.584-1.605,1.145-2.435,1.682l-1.257,0.787
				c-0.343,0.244-0.553,0.449-0.854,0.652c-0.564,0.4-1.175,0.739-1.819,1.008l-0.489,0.189c4.837-1.387-11.53,3.349,10.713-3.079
				l-0.035-0.119l-0.141-0.477l-0.282-0.953l-0.137-0.465c0.05,0.075,0.092,0.153,0.128,0.234c-0.047,0.189-0.146,0.377-0.265,0.547
				c-0.061,0.085-0.13,0.166-0.206,0.242c-0.027,0.01-0.053,0.01-0.084,0.013c-0.063,0.004-0.14-0.148-0.229-0.158L224.881,152
				h-0.027c-0.042,0-0.21,0.1-0.165,0.117c-0.008-0.001-0.03,0.067-0.064,0.051c-0.021-0.011,0.012,0.046-0.005,0.038
				c-0.004,0-0.037-0.002-0.051-0.012c0.006,0.006,0,0.014-0.016,0.001c-0.059-0.055-0.044-0.027-0.094-0.085l-0.038-0.047
				c0,0.001-0.003,0-0.008-0.005c-0.01-0.01-0.026-0.034-0.048-0.073c-0.026-0.056-0.01,0.003-0.044-0.093
				c0.024,0.071,0.019,0.083,0.021,0.113c0.017,0.09,0.022,0.167,0.022,0.229l-0.005,0.082c-0.004,0.014-0.006,0.038-0.003,0.139
				c0,0.156-0.012,0.297-0.033,0.422l-0.038,0.176l-0.023,0.079l-0.026,0.175c-0.02,0.116-0.042,0.229-0.069,0.336
				c-0.019,0.078-0.005,0.025-0.008,0.04c0.006,0.009,0.002-0.05,0.031-0.019c0.06,0.073,0.129,0.105,0.223,0.104
				c0.112,0.091,0.249,0.219,0.396,0.288l0.116,0.054c1.778-2.642-3.958,5.923,3.99-5.922l0.048,0.04l0.097,0.079l0.193,0.157
				l0.386,0.315c0.125,0.071-0.037,0.053-0.077,0.065c-0.064,0.004-0.128,0.003-0.19-0.002c-0.124-0.012-0.242-0.044-0.349-0.091
				c-0.044-0.054-0.12,0.011-0.193,0.058l-0.219,0.124c-0.301,0.154-0.516,0.199-1.053,0.418c-0.23,0.081-0.462,0.145-0.691,0.191
				l-0.349,0.063l-0.469,0.119c-0.647,0.154-1.196,0.183-1.903,0.247c-0.385,0.05-0.768,0.083-1.147,0.101l-0.56,0.014l0.007-0.014
				c0.007-0.001-0.02,0.094-0.014,0.136c-0.016,0.262-0.087,0.839-0.287,1.55c-0.362,1.41-1.051,3.208-1.947,4.992
				c-1.784,3.59-4.287,7.263-6.962,10.199c-1.325,1.469-2.733,2.741-3.893,3.556c-0.272,0.216-0.617,0.409-0.682,0.454
				c-0.137,0.074-0.323,0.18-0.488,0.253c-0.334,0.192-0.722,0.218-1.083,0.329c-0.118,0.008-0.189,0.016-0.346,0.039
				c-0.163,0.015-0.304,0.063-0.484,0.062c-0.354,0.002-0.681,0.068-1.054,0.051c-0.727,0.006-1.489-0.025-2.26-0.126
				c-1.543-0.188-3.104-0.587-4.546-1.162c-2.911-1.14-5.267-2.992-6.886-5.267c-0.802-1.118-1.585-2.583-2.235-4.225
				c-0.628-1.671-1.127-3.5-1.501-5.402c-0.348-1.917-0.534-3.91-0.607-5.924c0.002-2.021,0.023-4.063,0.32-6.096
				c0.081-1.021,0.323-2.026,0.473-3.041c0.23-1.002,0.431-2.013,0.711-3.003c0.296-0.976,0.561-2.04,0.894-2.816
				c0.171-0.43,0.272-0.83,0.487-1.289l0.615-1.371c0.172-0.431,0.459-0.969,0.736-1.496l0.818-1.575l1.769-2.904
				c0.608-0.974,1.153-1.961,1.862-2.915c1.368-1.922,2.62-3.842,4.188-5.768l2.25-2.887l2.521-2.937
				c6.841-7.831,14.503-16.241,21.675-24.126l-0.588-0.115l-0.52-0.112l-1.032-0.224l-0.889-0.218
				c-0.088-0.048-0.373-0.048-0.631-0.054l-0.766-0.021l-6.129-0.17l-12.257-0.34l-24.514-0.68l-21.246-0.589l-12.257-0.34
				l-6.128-0.17l-3.064-0.085l-1.532-0.042c-0.493,0.004-1.07-0.079-1.457,0.035c-0.54,7.516-0.961,15.159-1.757,22.505
				l-0.592,5.092l-0.4,3.082c-0.282,2.048-0.575,4.092-0.904,6.116c-0.646,4.052-1.394,8.05-2.281,11.898
				c-0.876,3.849-1.929,7.561-3.133,10.762c-0.604,1.558-1.267,2.979-1.837,3.949l-0.204,0.338l-0.098,0.171l-0.082,0.099
				c-0.131,0.142-0.145,0.257-0.335,0.45c-0.281,0.355-0.681,0.755-1.111,1.163c-1.773,1.66-4.479,3.334-7.286,4.521
				c-1.786,0.736-1.937,0.737-2.616,0.926c-0.599,0.147-1.211,0.247-1.828,0.273c-1.2,0.045-2.581-0.199-3.34-1.222
				c-0.237-0.519-0.267-1.104-0.318-1.665c-0.041-0.567,0.047-1.136,0.043-1.704c-0.002-0.121,0.098-0.394,0.098-0.141v0.1
				l-0.096-0.505l-0.037-1.276c0.043-1.709,0.042-3.414,0.116-5.129c0.116-3.423,0.295-6.874,0.505-10.344
				c0.214-3.47,0.467-6.978,0.75-10.512l0.909-10.693l1.875-21.368l-0.485,0.227l-0.603,0.42l-1.207,0.844l-2.421,1.692l-4.856,3.39
				l-9.732,6.785c-6.496,4.53-12.95,9.015-19.389,13.33c-3.221,2.171-6.446,4.297-9.679,6.404l-3.662,2.354l-2.76,1.738
				l-2.623,1.611l-0.825,0.489c-0.558,0.32-1.118,0.638-1.71,0.89c-1.578,0.416-3.556,0.049-4.535-1.376
				c-0.963-1.425-0.89-3.271-0.51-4.876c0.049-0.205,0.105-0.407,0.164-0.609c0.077-0.237,0.083-0.288,0.275-0.805
				c0.337-0.987,0.777-1.974,1.221-2.958c0.478-0.975,0.972-1.952,1.54-2.895l0.421-0.712l0.572-0.846l1.144-1.692l2.281-3.388
				c0.765-1.131,1.483-2.252,2.372-3.417l5.091-6.928c1.664-2.313,3.466-4.613,5.23-6.917l5.306-6.911l10.854-13.746
				c7.302-9.124,14.701-18.252,22.126-27.232L99.274,42.794z"/>
			<path fill="#FFFFFF" d="M95.425,39.598c-7.488,9.057-14.9,18.201-22.248,27.381l-10.928,13.84l-5.365,6.986
				c-1.784,2.331-3.598,4.646-5.308,7.019l-5.201,7.08c-0.892,1.17-1.676,2.383-2.488,3.584l-2.429,3.609l-1.215,1.804l-0.607,0.902
				l-0.535,0.902c-0.719,1.199-1.355,2.443-1.965,3.698c-0.577,1.268-1.139,2.545-1.592,3.856c-0.465,1.267-0.796,2.421-1.103,3.665
				c-0.587,2.453-0.89,4.983-0.743,7.506c0.184,2.5,0.799,5.05,2.272,7.122c1.442,2.074,3.684,3.554,6.141,4.133
				c1.221,0.317,2.483,0.473,3.744,0.48c0.631,0.025,1.261-0.008,1.891-0.051c0.64,0.023,1.244-0.209,1.828-0.434
				c1.776-0.755,3.458-1.709,5.13-2.668l2.487-1.475l2.826-1.734l2.837-1.787l3.007-1.927l6.456-4.236
				c4.292-2.847,8.569-5.755,12.845-8.687l6.402-4.409l3.192-2.213l1.593-1.109l0.796-0.555l0.396-0.275l0.066,0.291
				c-0.785,9.16-1.517,18.44-1.973,27.573c-0.107,2.284-0.205,4.565-0.263,6.841c-0.065,2.218-0.096,4.819-0.077,6.165
				c0.015,1.705,0.05,3.411,0.174,5.112c0.063,0.851,0.146,1.699,0.271,2.543c0.147,0.835,0.289,1.693,0.684,2.452
				c1.063,1.524,2.774,2.493,4.525,3.037c1.77,0.562,3.647,0.68,5.492,0.628c1.852-0.079,3.688-0.377,5.486-0.818
				c1.813-0.453,3.487-1.004,5.436-1.829c3.732-1.597,7.292-3.722,10.191-6.401c0.715-0.673,1.404-1.369,2.007-2.11
				c0.599-0.739,1.123-1.483,1.621-2.338c0.989-1.685,1.827-3.553,2.576-5.475c1.458-3.877,2.594-7.958,3.54-12.097
				c0.954-4.139,1.736-8.339,2.411-12.563c0.343-2.111,0.646-4.231,0.938-6.353l0.415-3.188l0.428-3.592
				c0.549-4.904,0.97-9.874,1.325-14.826l0.075-0.189c0.02-0.069,0.152-0.015,0.223-0.029l0.511,0.014l1.021,0.028l2.043,0.057
				l4.086,0.113l8.171,0.227l15.688,0.436l16.343,0.453l8.171,0.227l4.086,0.113l0.511,0.014l0.256,0.007
				c0.019,0.001,0.047,0,0.06,0.003l-0.021,0.036L204,96.239l-0.303,0.573c-0.175,0.387-0.375,0.769-0.521,1.161
				c-4.22,4.773-8.405,9.771-12.226,14.796l-1.421,1.887l-1.333,1.9c-0.914,1.259-1.708,2.554-2.547,3.835
				c-0.824,1.283-1.552,2.619-2.321,3.915c-0.572,1.153-1.235,2.306-1.735,3.457c-2.103,4.521-3.429,9.481-4.033,14.506
				c-0.354,2.508-0.402,5.042-0.393,7.565c0.087,2.522,0.323,5.035,0.772,7.505c0.479,2.461,1.133,4.879,2.012,7.197
				c0.909,2.299,2.041,4.491,3.435,6.439c1.4,1.942,3.087,3.695,4.995,5.168c1.913,1.47,4.053,2.655,6.309,3.556
				c4.491,1.792,9.586,2.454,14.218,1.688c1.107-0.235,2.233-0.459,3.255-0.972c1.041-0.49,1.98-1.024,2.972-1.749
				c1.96-1.392,3.797-3.106,5.488-4.966c3.381-3.73,6.29-8.002,8.544-12.512c1.123-2.254,2.059-4.59,2.667-6.924
				c0.314-1.166,0.515-2.331,0.586-3.44c0.092-1.115-0.008-2.167-0.283-2.988c-0.044-0.23-0.154-0.389-0.235-0.571
				c-0.042-0.076-0.081-0.213-0.118-0.243c-0.037-0.038-0.066-0.079-0.089-0.125c-0.044-0.058,0.008-0.073-0.102-0.183l-0.361-0.341
				l-0.181-0.17l-0.09-0.085l-0.046-0.043c0.349,0.297,0.071,0.066,0.138,0.125l-0.354-0.232c-0.472-0.305-0.931-0.64-1.405-0.934
				l-1.483-0.698c-2.009-0.771-4.156-0.908-6.092-0.257c-1.925,0.655-3.591,2.049-4.612,3.83c-0.121,0.226-0.279,0.434-0.378,0.671
				l-0.271,0.724c-0.23,0.466-0.28,0.989-0.395,1.491c-0.16,0.498-0.079,1.033-0.131,1.548l-0.021,0.39l0.051,0.343
				c0.031,0.229,0.057,0.457,0.076,0.688l0.024,0.348l0.139,0.475l0.282,0.953l0.142,0.477l0.035,0.119
				c-3.062,0.775-0.56,0.125-1.115,0.25l0.489-0.189l0.477-0.214c0.192-0.094,0.054-0.031,0.096-0.053l-0.007-0.013
				c-0.001-0.001-0.014-0.013-0.007-0.002l0.052,0.069l0.103,0.14c0.071,0.095,0.123,0.181,0.227,0.299
				c0.709,0.882,1.604,1.826,2.499,2.722c1.804,1.809,3.726,3.555,5.699,5.228c3.959,3.333,8.133,6.444,12.536,9.041
				c1.103,0.639,2.211,1.273,3.343,1.828c0.563,0.292,1.128,0.571,1.701,0.818c0.589,0.263,1.077,0.499,1.619,0.697
				c2.104,0.841,4.308,1.5,6.575,1.678c2.25,0.183,4.61-0.197,6.525-1.453c1.927-1.267,3.108-3.317,4.082-5.348l10.12-19.665
				c0.925-1.819,1.876-3.623,2.777-5.454l2.69-5.5l2.689-5.5l1.346-2.75l0.672-1.375l0.168-0.344
				c0.029-0.033,0.054-0.169,0.088-0.117l0.098,0.08l0.396,0.311c3.337,5.055,6.816,10.11,10.371,14.996
				c0.889,1.221,1.78,2.437,2.697,3.615c0.907,1.192,1.818,2.381,2.761,3.534l1.401,1.744c0.229,0.291,0.477,0.582,0.724,0.875
				l0.635,0.748c0.831,0.976,1.652,1.963,2.518,2.9c3.4,3.782,7.012,7.47,10.962,10.187c3.766,2.673,8.556,3.584,13.035,2.722
				c4.479-0.842,8.492-3.584,10.674-7.509c0.568-0.966,0.998-2.017,1.347-3.098c0.166-0.543,0.329-1.09,0.435-1.671
				c0.146-0.496,0.196-1.318,0.271-2.055c0.228-3.023-0.052-6.097-0.421-9.1c-1.366-12.079-2.648-24.185-4.188-36.207l0.196-1.746
				c0.019-0.053-0.007-0.191,0.048-0.173l0.264,0.254l0.526,0.508l1.054,1.016l4.184,4.07c2.783,2.715,5.568,5.427,8.3,8.182
				c2.735,2.762,5.512,5.45,8.214,8.271l8.087,8.5c1.352,1.404,2.675,2.879,4.07,4.272l1.051,1.042l0.664,0.635l0.429,0.396
				c0.526,0.495,1.098,0.977,1.651,1.459c2.251,1.906,4.63,3.661,7.118,5.245c2.486,1.586,5.084,3.002,7.781,4.196
				c1.35,0.593,2.728,1.127,4.137,1.562c1.408,0.428,2.852,0.786,4.326,0.869c0.661,0.027,1.334,0.012,1.973-0.174
				c0.319-0.091,0.625-0.24,0.848-0.492c0.212-0.256,0.371-0.552,0.479-0.866c0.425-1.264,0.42-2.621,0.395-3.94
				c-0.097-2.654-0.502-5.285-0.96-7.898c-0.469-2.612-1.025-5.208-1.627-7.794c-0.606-2.612-1.231-5.102-1.935-7.786
				c-3.137-11.911-6.743-23.729-10.478-35.518c-1.844-5.865-3.894-11.794-5.335-17.991c-1.436-6.175-2.359-12.649-1.735-19.231
				c0.32-3.278,1.047-6.563,2.27-9.684c1.215-3.122,2.929-6.06,5.026-8.658c2.097-2.602,4.548-4.875,7.191-6.822
				c2.661-1.924,5.492-3.535,8.392-4.958l-2.152-4.517c-3.141,1.539-6.239,3.299-9.198,5.44c-2.943,2.167-5.728,4.737-8.131,7.72
				c-2.404,2.977-4.392,6.382-5.79,9.976c-1.407,3.594-2.229,7.346-2.587,11.021c-0.694,7.381,0.339,14.361,1.843,20.852
				c1.52,6.518,3.621,12.576,5.438,18.361c3.723,11.752,7.308,23.504,10.407,35.278l0.704,2.747l0.622,2.58
				c0.4,1.724,0.771,3.454,1.084,5.196c0.306,1.742,0.576,3.496,0.641,5.265c0.017,0.879,0.02,1.784-0.264,2.626
				c-0.135,0.417-0.432,0.814-0.884,0.905c-0.426,0.125-0.875,0.135-1.315,0.116c-1.969-0.145-3.843-0.851-5.643-1.621
				c-1.798-0.796-3.529-1.74-5.187-2.798c-1.659-1.056-3.245-2.226-4.746-3.496c-0.364-0.317-0.762-0.654-1.088-0.96l-0.335-0.313
				l-0.64-0.616l-0.246-0.242l-0.163-0.167l-1.299-1.329c-1.729-1.77-3.401-3.63-5.09-5.343l-10.122-10.455
				c-1.682-1.777-3.388-3.387-5.083-5.073l-5.093-5.01l-10.245-10l-5.163-5.001l-1.303-1.255l-0.651-0.628l-0.325-0.314
				c-0.084-0.058-0.111-0.008-0.17-0.017l-1.219,0.116c1.942,15.387,3.688,30.96,5.498,46.473c0.229,1.939,0.459,3.878,0.614,5.833
				c0.147,1.961,0.288,3.952,0.285,5.877l-0.046,1.426l-0.011,0.356c-0.004,0.121-0.022,0.128-0.032,0.198l-0.07,0.331
				c-0.078,0.463-0.199,0.853-0.315,1.235c-0.249,0.765-0.541,1.492-0.928,2.138c-1.464,2.615-4.084,4.447-7.275,5.067
				c-1.576,0.314-3.251,0.299-4.833-0.026c-0.788-0.173-1.571-0.383-2.297-0.713c-0.37-0.147-0.721-0.335-1.07-0.518l-0.514-0.296
				c-0.184-0.116-0.396-0.283-0.595-0.42l-1.218-0.853c-0.412-0.301-0.839-0.695-1.26-1.035c-0.421-0.363-0.847-0.682-1.27-1.075
				l-1.268-1.198c-0.853-0.767-1.682-1.657-2.517-2.517c-0.843-0.84-1.653-1.774-2.475-2.68c-0.827-0.894-1.624-1.853-2.428-2.797
				l-0.638-0.754c-0.319-0.384-0.641-0.761-0.92-1.122l-1.742-2.194c-1.174-1.444-2.303-2.955-3.429-4.472
				c-1.138-1.489-2.247-3.055-3.352-4.631c-4.41-6.314-8.831-12.965-13.086-19.436c-0.63-0.156-1.157,1.521-1.728,2.559
				l-1.687,3.447l-3.372,6.895l-3.372,6.894c-1.128,2.295-2.306,4.561-3.456,6.843l-6.377,12.52l-4.366,8.465
				c-0.649,1.354-1.438,2.721-2.722,3.565c-1.276,0.837-2.85,1.091-4.351,0.969c-1.512-0.119-2.98-0.558-4.384-1.118
				c-0.179-0.073-0.344-0.126-0.541-0.224l-0.662-0.299c-0.505-0.215-1.013-0.466-1.521-0.731c-1.018-0.497-2.039-1.082-3.057-1.671
				c-4.075-2.4-8.068-5.369-11.84-8.546c-1.879-1.592-3.718-3.264-5.386-4.938c-0.815-0.812-1.667-1.725-2.129-2.306
				c-0.092-0.104-0.063-0.086-0.08-0.104c-0.084,0.044,0.339-0.241-0.848,0.543l-1.257,0.787c-0.343,0.244-0.553,0.449-0.854,0.652
				c-0.564,0.4-1.175,0.739-1.819,1.008l-0.489,0.189c2.696-0.756-6.738,1.937,5.914-1.664l-0.035-0.119l-0.142-0.477l-0.281-0.953
				l-0.138-0.469l0.051-0.057c0.026-0.034,0.034-0.062,0.024-0.09c-0.005-0.014-0.015-0.028-0.029-0.043l0.025-0.176
				c0.052-0.229-0.051-0.486,0.059-0.692c0.065-0.213,0.041-0.455,0.171-0.642c0.043-0.101,0.077-0.205,0.102-0.313
				c0.037-0.104,0.127-0.179,0.173-0.276c0.432-0.752,1.115-1.318,1.86-1.583c0.756-0.244,1.602-0.227,2.701,0.174
				c0.275,0.156,0.557,0.289,0.853,0.401c0.294,0.192,0.591,0.424,0.901,0.611l0.234,0.144c0.41-0.879-0.875,1.993,0.927-1.966
				l0.048,0.04l0.097,0.079l0.193,0.157l0.386,0.315c0.125,0.071-0.037,0.053-0.077,0.065c-0.064,0.004-0.128,0.003-0.19-0.002
				c-0.124-0.012-0.242-0.044-0.349-0.091c-0.044-0.054-0.12,0.011-0.193,0.058l-0.219,0.124c-0.301,0.154-0.516,0.199-1.053,0.418
				l-0.173,0.057c-0.004,0.001-0.002,0-0.002,0.001l0.005-0.001c0.012-0.015,0.015,0.008,0.011,0.051
				c-0.003,0.076,0.026,0.113,0.035,0.213c-0.004,0.123,0.001,0.244,0.015,0.366c0.007,0.131-0.021,0.321-0.022,0.479
				c-0.044,0.685-0.18,1.557-0.438,2.495c-0.484,1.872-1.297,3.939-2.307,5.958c-2.019,4.05-4.725,8.022-7.753,11.355
				c-1.508,1.665-3.131,3.158-4.69,4.261c-0.835,0.61-1.35,0.875-2.071,1.228c-0.678,0.353-1.434,0.478-2.168,0.65
				c-0.371,0.035-0.813,0.122-1.287,0.161c-0.477,0.014-0.937,0.086-1.426,0.071c-0.966,0.01-1.954-0.035-2.942-0.162
				c-1.978-0.241-3.949-0.745-5.799-1.482c-1.85-0.739-3.586-1.702-5.12-2.881c-1.526-1.179-2.87-2.584-3.975-4.115
				c-1.098-1.533-2.056-3.362-2.835-5.332c-0.753-1.995-1.33-4.118-1.756-6.3c-0.398-2.194-0.61-4.447-0.69-6.715
				c-0.004-2.272,0.03-4.56,0.356-6.831c0.096-1.141,0.357-2.263,0.529-3.395c0.253-1.118,0.481-2.245,0.792-3.349
				c0.328-1.094,0.619-2.246,1.017-3.205c0.198-0.504,0.337-0.999,0.575-1.516l0.693-1.548c0.206-0.503,0.502-1.061,0.79-1.612
				l0.855-1.652l1.456-2.433c0.497-0.813,0.95-1.639,1.52-2.434c1.104-1.602,2.126-3.209,3.368-4.801l1.791-2.394l1.971-2.412
				c5.331-6.428,11.255-13.132,16.95-19.461c-0.341-0.273-0.542-0.538-0.81-0.806c-0.097-0.132-0.205-0.265-0.293-0.396
				l-0.031-0.049c0.001-0.021-0.024-0.032-0.093-0.028l-0.318-0.009l-0.639-0.018l-5.107-0.142l-10.214-0.283l-20.428-0.566
				l-18.468-0.512l-10.214-0.283l-5.107-0.142l-2.554-0.071l-1.276-0.036l-0.639-0.018c-0.096,0.008-0.235-0.03-0.296,0.015
				l-0.198,0.122c-0.447,6.234-0.868,12.54-1.541,18.666l-0.51,4.342l-0.407,3.135c-0.287,2.085-0.586,4.167-0.922,6.234
				c-0.66,4.138-1.425,8.237-2.347,12.23c-0.91,3.994-2.005,7.891-3.336,11.43c-0.677,1.739-1.427,3.385-2.207,4.712
				c-0.197,0.295-0.385,0.691-0.578,0.911c-0.21,0.257-0.331,0.512-0.591,0.787c-0.442,0.548-0.986,1.096-1.56,1.637
				c-2.336,2.169-5.469,4.069-8.739,5.461c-1.867,0.78-2.779,1.057-4.025,1.377c-1.198,0.294-2.423,0.493-3.657,0.545
				c-1.23,0.035-2.481-0.044-3.661-0.419c-1.168-0.362-2.309-1.008-3.018-2.024c-0.476-1.038-0.534-2.207-0.637-3.33
				c-0.082-1.134-0.105-2.272-0.115-3.409l0.01-2.286c0.033-1.424,0.051-2.844,0.106-4.271c0.087-2.85,0.231-5.715,0.391-8.593
				c0.317-5.745,0.791-11.61,1.267-17.491l1.492-17.582l-0.275-0.032l-0.499,0.348l-1.001,0.699l-2.008,1.4l-4.023,2.802
				l-8.068,5.597c-5.385,3.731-10.751,7.428-16.116,11.008c-2.683,1.8-5.372,3.566-8.067,5.32l-3.335,2.14l-2.798,1.763
				l-2.725,1.672l-1.656,0.982c-1.114,0.64-2.236,1.276-3.42,1.779c-0.39,0.15-0.793,0.305-1.219,0.29
				c-0.42,0.029-0.84,0.051-1.261,0.034c-0.841-0.005-1.683-0.108-2.495-0.32c-1.639-0.386-3.133-1.373-4.095-2.756
				c-0.982-1.381-1.393-3.081-1.515-4.748c-0.098-1.682,0.104-3.369,0.496-5.004c0.097-0.409,0.21-0.814,0.327-1.218
				c0.136-0.423,0.223-0.736,0.443-1.321c0.395-1.149,0.896-2.281,1.405-3.407c0.544-1.115,1.109-2.225,1.753-3.297l0.478-0.807
				l0.59-0.874l1.18-1.748l2.354-3.498c0.789-1.167,1.54-2.334,2.431-3.501l5.146-7.004c1.687-2.343,3.494-4.651,5.269-6.968
				l5.336-6.949l10.891-13.793c7.325-9.151,14.73-18.288,22.188-27.307L95.425,39.598z"/>
			<path fill="#ECE399" d="M91.575,36.402c-7.52,9.095-14.938,18.248-22.309,27.456L58.302,77.745l-5.395,7.024
				c-1.795,2.344-3.612,4.666-5.346,7.07l-5.257,7.156c-0.894,1.172-1.711,2.432-2.547,3.668l-2.502,3.719l-1.251,1.86l-0.625,0.93
				l-0.592,0.997c-0.794,1.327-1.502,2.706-2.177,4.1c-0.645,1.41-1.268,2.832-1.777,4.304c-0.553,1.497-1.032,3.178-1.41,4.792
				c-0.381,1.636-0.625,3.293-0.784,4.952c-0.118,1.66-0.137,3.322,0.012,4.965c0.343,3.26,1.272,6.514,3.234,9.159
				c1.926,2.648,4.809,4.572,7.978,5.395c1.574,0.446,3.21,0.682,4.852,0.727c0.821,0.048,1.644,0.021,2.467-0.021
				c0.836,0.03,1.627-0.224,2.395-0.458c2.343-0.821,4.605-2.009,6.836-3.284c1.114-0.638,2.223-1.287,3.323-1.956l2.927-1.796
				l5.554-3.526l4.844-3.166c3.219-2.125,6.419-4.28,9.607-6.451l4.774-3.27l2.38-1.645l1.188-0.825l0.594-0.414l0.295-0.205
				l-0.032,0.36c-0.583,6.796-1.059,13.604-1.354,20.419c-0.071,1.704-0.134,3.408-0.172,5.113
				c-0.038,1.763-0.069,3.143-0.041,5.773c0.033,2.268,0.094,4.545,0.34,6.76c0.25,2.223,0.604,4.364,1.594,6.33
				c1.427,1.942,3.588,3.261,5.841,4.038c2.268,0.806,4.702,1.055,7.124,1.055c2.431-0.033,4.872-0.379,7.268-0.938
				c2.382-0.556,4.821-1.382,6.849-2.252c4.196-1.802,8.182-4.153,11.645-7.341c0.857-0.806,1.691-1.649,2.455-2.584
				c0.765-0.935,1.483-1.965,2.071-2.978c1.199-2.042,2.125-4.134,2.945-6.237c1.585-4.215,2.763-8.481,3.744-12.765
				c0.988-4.283,1.788-8.584,2.476-12.895c0.351-2.155,0.66-4.313,0.957-6.471l0.421-3.24l0.343-2.844
				c0.418-3.68,0.778-7.367,1.043-11.062l0.013-0.191c-0.001-0.07,0.109-0.016,0.159-0.03l0.383,0.01l0.767,0.021l1.531,0.042
				l3.064,0.085l6.129,0.17l12.91,0.358l12.257,0.34l6.129,0.17l3.063,0.085l0.384,0.01l0.191,0.005
				c0.014,0.001,0.036,0,0.044,0.003l-0.033,0.035l-0.064,0.07l-0.516,0.567l-1.016,1.147c-2.984,3.425-5.827,6.977-8.454,10.684
				c-1.329,1.843-2.567,3.748-3.759,5.682c-0.6,0.968-1.137,1.959-1.713,2.953c-0.605,1.22-1.268,2.369-1.827,3.648l-0.85,1.904
				c-0.287,0.632-0.501,1.314-0.753,1.97c-0.526,1.322-0.867,2.653-1.262,3.981c-0.373,1.332-0.654,2.69-0.953,4.041
				c-0.219,1.367-0.518,2.722-0.643,4.103c-0.385,2.746-0.445,5.526-0.429,8.299c0.093,2.775,0.354,5.549,0.854,8.296
				c0.531,2.741,1.263,5.454,2.266,8.095c1.039,2.628,2.346,5.184,4.035,7.547c1.697,2.354,3.726,4.454,6.016,6.22
				c2.293,1.761,4.834,3.168,7.497,4.232c5.346,2.099,11.137,2.917,16.981,1.962c1.48-0.302,2.972-0.63,4.339-1.297
				c1.36-0.624,2.728-1.423,3.875-2.263c2.36-1.681,4.412-3.616,6.286-5.672c3.734-4.126,6.847-8.699,9.335-13.667
				c1.236-2.489,2.295-5.094,3.026-7.891c0.372-1.393,0.637-2.851,0.736-4.385c0.109-1.521,0.027-3.168-0.527-4.867
				c-0.106-0.421-0.321-0.844-0.522-1.261c-0.115-0.215-0.177-0.401-0.341-0.636c-0.157-0.23-0.322-0.458-0.492-0.681
				c-0.159-0.203-0.374-0.484-0.5-0.605l-0.361-0.341l-0.181-0.171l-0.091-0.085l-0.045-0.042c-0.377-0.327-0.138-0.114-0.237-0.197
				l-0.472-0.322c-0.635-0.422-1.255-0.862-1.91-1.256l-2.113-0.995c-2.92-1.141-6.369-1.397-9.482-0.34
				c-3.105,1.046-5.755,3.267-7.365,6.076c-0.195,0.354-0.422,0.695-0.583,1.065l-0.438,1.133c-0.332,0.746-0.455,1.549-0.62,2.34
				c-0.276,1.588-0.278,3.182,0.03,4.933l0.101,0.639l0.141,0.479l0.282,0.953l0.141,0.476l0.035,0.119
				c0.129,0.389,0.067,0.176,0.11,0.293l0.057,0.118c0.077,0.157,0.158,0.313,0.244,0.465l0.128,0.218l0.094,0.132l0.188,0.263
				c0.126,0.172,0.259,0.362,0.373,0.494c0.955,1.183,1.895,2.157,2.869,3.138c1.938,1.944,3.944,3.764,6.014,5.518
				c4.146,3.49,8.499,6.742,13.23,9.535c1.188,0.689,2.384,1.372,3.631,1.985c0.614,0.318,1.237,0.625,1.881,0.904
				c0.621,0.278,1.329,0.612,2.033,0.868c2.812,1.101,5.755,1.943,8.752,2.1c2.974,0.165,6.056-0.39,8.59-2.021
				c0.588-0.457,1.208-0.886,1.75-1.396l0.77-0.814c0.257-0.271,0.523-0.534,0.72-0.854c0.411-0.625,0.895-1.197,1.245-1.865
				l1.084-1.978l9.483-18.373c1.425-2.707,2.77-5.45,4.104-8.198l2.014-4.117l1.007-2.059l0.503-1.029l0.126-0.257
				c0.022-0.019,0.039-0.14,0.066-0.074l0.078,0.12l0.314,0.479c2.466,3.726,5.046,7.376,7.726,10.95
				c1.339,1.789,2.704,3.557,4.112,5.291l1.055,1.302l0.524,0.63l0.631,0.742c0.859,1.008,1.705,2.025,2.607,3.004
				c3.567,3.943,7.271,7.807,11.918,11.016c2.328,1.661,5.166,2.845,8.02,3.424c2.874,0.588,5.86,0.613,8.743,0.046
				c1.444-0.268,2.861-0.701,4.223-1.272c1.365-0.56,2.676-1.272,3.889-2.132c1.22-0.847,2.357-1.828,3.349-2.938
				c1.007-1.096,1.893-2.309,2.613-3.608c0.749-1.285,1.316-2.66,1.765-4.057c0.217-0.703,0.419-1.407,0.553-2.108
				c0.183-0.767,0.23-1.255,0.314-1.817c0.304-2.22,0.116-4.468-0.156-6.681c-0.981-8.881-1.882-17.772-3.027-26.634l-0.271-2.196
				c-0.001-0.071-0.045-0.228-0.011-0.229l0.198,0.192l0.398,0.384l0.797,0.768l3.166,3.09c2.107,2.064,4.218,4.125,6.28,6.234
				c2.063,2.107,4.173,4.17,6.199,6.313l6.06,6.449c1.015,1.07,1.999,2.169,3.053,3.203l0.795,0.769l0.791,0.735
				c0.732,0.679,1.478,1.304,2.225,1.946c3.014,2.516,6.205,4.789,9.496,6.768c3.289,1.986,6.681,3.675,10.102,4.978
				c1.711,0.647,3.429,1.187,5.157,1.586c1.732,0.401,3.458,0.659,5.231,0.634c0.789-0.031,1.593-0.113,2.364-0.385
				c0.383-0.136,0.758-0.333,1.047-0.633c0.274-0.307,0.491-0.652,0.653-1.014c0.633-1.457,0.775-3.003,0.885-4.539
				c0.168-3.083-0.059-6.267-0.487-9.593c-0.892-6.646-2.636-13.716-4.374-20.422c-3.173-12.048-6.801-23.932-10.546-35.758
				c-1.873-5.946-3.87-11.746-5.234-17.622c-1.367-5.859-2.181-11.827-1.626-17.61c0.535-5.77,2.603-11.258,6.213-15.686
				c1.79-2.22,3.91-4.197,6.253-5.923c2.362-1.707,4.927-3.168,7.585-4.477l-2.152-4.517c-2.899,1.423-5.73,3.035-8.392,4.958
				c-2.644,1.946-5.095,4.22-7.191,6.822c-2.098,2.598-3.812,5.536-5.026,8.658c-1.223,3.121-1.949,6.405-2.27,9.684
				c-0.624,6.582,0.3,13.056,1.735,19.231c1.441,6.197,3.491,12.126,5.335,17.991c3.734,11.789,7.341,23.607,10.478,35.518
				c0.703,2.685,1.328,5.174,1.935,7.786c0.602,2.585,1.158,5.182,1.627,7.794c0.458,2.613,0.863,5.244,0.96,7.898
				c0.025,1.319,0.03,2.676-0.395,3.94c-0.108,0.313-0.268,0.61-0.479,0.866c-0.223,0.252-0.528,0.401-0.848,0.492
				c-0.639,0.187-1.312,0.202-1.973,0.174c-1.475-0.083-2.918-0.441-4.326-0.869c-1.409-0.435-2.787-0.969-4.137-1.562
				c-2.697-1.194-5.295-2.61-7.781-4.196c-2.488-1.583-4.867-3.338-7.118-5.245c-0.554-0.482-1.125-0.965-1.651-1.459l-0.429-0.396
				l-0.664-0.635l-1.051-1.042c-1.396-1.393-2.719-2.868-4.07-4.272l-8.087-8.5c-2.702-2.822-5.479-5.51-8.214-8.271
				c-2.731-2.755-5.517-5.467-8.3-8.182l-4.184-4.07l-1.054-1.016l-0.526-0.508l-0.264-0.254c-0.055-0.018-0.029,0.121-0.048,0.173
				l-0.196,1.746c1.539,12.022,2.821,24.128,4.188,36.207c0.369,3.003,0.648,6.076,0.421,9.1c-0.074,0.737-0.124,1.559-0.271,2.055
				c-0.105,0.582-0.269,1.128-0.435,1.671c-0.349,1.081-0.778,2.132-1.347,3.098c-2.182,3.924-6.195,6.667-10.674,7.509
				c-4.479,0.863-9.27-0.048-13.035-2.722c-3.95-2.716-7.562-6.405-10.962-10.187c-0.865-0.937-1.687-1.924-2.518-2.9l-0.635-0.748
				c-0.247-0.293-0.495-0.584-0.724-0.875l-1.401-1.744c-0.942-1.152-1.854-2.341-2.761-3.534c-0.917-1.179-1.809-2.395-2.697-3.615
				c-3.555-4.885-7.034-9.941-10.371-14.996l-0.396-0.311l-0.098-0.08c-0.034-0.053-0.059,0.084-0.088,0.117l-0.168,0.344
				l-0.672,1.375l-1.346,2.75l-2.689,5.5l-2.69,5.5c-0.901,1.831-1.853,3.635-2.777,5.454l-10.12,19.665
				c-0.974,2.031-2.155,4.081-4.082,5.348c-1.915,1.256-4.275,1.636-6.525,1.453c-2.268-0.178-4.471-0.837-6.575-1.678
				c-0.542-0.198-1.03-0.434-1.619-0.697c-0.573-0.247-1.139-0.526-1.701-0.818c-1.132-0.554-2.24-1.188-3.343-1.828
				c-4.403-2.596-8.577-5.707-12.536-9.041c-1.974-1.673-3.896-3.419-5.699-5.228c-0.896-0.896-1.79-1.84-2.499-2.722
				c-0.104-0.118-0.155-0.204-0.227-0.299l-0.103-0.14l-0.052-0.069c-0.007-0.011,0.006,0.001,0.007,0.002l0.007,0.013
				c-0.042,0.022,0.097-0.041-0.096,0.053l-0.477,0.214l-0.489,0.189c0.556-0.125-1.946,0.525,1.115-0.25l-0.035-0.119l-0.142-0.477
				l-0.282-0.953l-0.139-0.475l-0.024-0.348c-0.02-0.23-0.045-0.459-0.076-0.688l-0.051-0.343l0.021-0.39
				c0.052-0.515-0.029-1.05,0.131-1.548c0.114-0.502,0.164-1.024,0.395-1.491l0.271-0.724c0.099-0.237,0.257-0.445,0.378-0.671
				c1.021-1.781,2.688-3.174,4.612-3.83c1.936-0.651,4.083-0.514,6.092,0.257l1.483,0.698c0.475,0.293,0.934,0.629,1.405,0.934
				l0.354,0.232c-0.066-0.059,0.211,0.172-0.138-0.125l0.046,0.043l0.09,0.085l0.181,0.17l0.361,0.341
				c0.109,0.11,0.058,0.125,0.102,0.183c0.022,0.046,0.052,0.087,0.089,0.125c0.037,0.029,0.076,0.167,0.118,0.243
				c0.081,0.182,0.191,0.341,0.235,0.571c0.275,0.82,0.375,1.873,0.283,2.988c-0.071,1.109-0.271,2.274-0.586,3.44
				c-0.608,2.334-1.544,4.67-2.667,6.924c-2.254,4.509-5.163,8.782-8.544,12.512c-1.691,1.86-3.528,3.574-5.488,4.966
				c-0.991,0.725-1.931,1.259-2.972,1.749c-1.021,0.512-2.147,0.736-3.255,0.972c-4.632,0.766-9.727,0.104-14.218-1.688
				c-2.256-0.901-4.396-2.086-6.309-3.556c-1.908-1.473-3.595-3.226-4.995-5.168c-1.394-1.948-2.525-4.14-3.435-6.439
				c-0.879-2.318-1.532-4.736-2.012-7.197c-0.449-2.47-0.686-4.983-0.772-7.505c-0.01-2.522,0.038-5.057,0.393-7.565
				c0.604-5.025,1.931-9.985,4.033-14.506c0.5-1.151,1.163-2.304,1.735-3.457c0.77-1.296,1.497-2.631,2.321-3.915
				c0.839-1.281,1.633-2.576,2.547-3.835l1.333-1.9l1.421-1.887c3.82-5.025,8.006-10.022,12.226-14.796
				c0.146-0.392,0.346-0.774,0.521-1.161L204,96.239l0.04-0.071l0.021-0.036c-0.013-0.004-0.041-0.002-0.06-0.003l-0.256-0.007
				l-0.511-0.014l-4.086-0.113l-8.171-0.227l-16.343-0.453l-15.688-0.436l-8.171-0.227l-4.086-0.113l-2.043-0.057l-1.021-0.028
				l-0.511-0.014c-0.07,0.014-0.203-0.041-0.223,0.029l-0.075,0.189c-0.355,4.952-0.776,9.921-1.325,14.826l-0.428,3.592
				l-0.415,3.188c-0.292,2.122-0.596,4.242-0.938,6.353c-0.675,4.224-1.457,8.424-2.411,12.563c-0.946,4.139-2.082,8.22-3.54,12.097
				c-0.749,1.921-1.587,3.79-2.576,5.475c-0.498,0.855-1.022,1.599-1.621,2.338c-0.603,0.741-1.292,1.437-2.007,2.11
				c-2.899,2.679-6.459,4.804-10.191,6.401c-1.948,0.825-3.622,1.376-5.436,1.829c-1.798,0.441-3.635,0.739-5.486,0.818
				c-1.845,0.052-3.723-0.067-5.492-0.628c-1.751-0.543-3.462-1.513-4.525-3.037c-0.395-0.758-0.536-1.616-0.684-2.452
				c-0.125-0.844-0.208-1.692-0.271-2.543c-0.124-1.701-0.159-3.407-0.174-5.112c-0.019-1.346,0.012-3.947,0.077-6.165
				c0.058-2.276,0.155-4.557,0.263-6.841c0.456-9.132,1.188-18.413,1.973-27.573l-0.066-0.291l-0.396,0.275l-0.796,0.555
				l-1.593,1.109l-3.192,2.213l-6.402,4.409c-4.275,2.932-8.553,5.84-12.845,8.687l-6.456,4.236l-3.007,1.927l-2.837,1.787
				l-2.826,1.734l-2.487,1.475c-1.672,0.959-3.354,1.914-5.13,2.668c-0.584,0.225-1.188,0.458-1.828,0.434
				c-0.63,0.043-1.26,0.077-1.891,0.051c-1.261-0.007-2.523-0.163-3.744-0.48c-2.457-0.579-4.698-2.06-6.141-4.133
				c-1.474-2.071-2.089-4.621-2.272-7.122c-0.146-2.523,0.156-5.054,0.743-7.506c0.307-1.244,0.638-2.397,1.103-3.665
				c0.453-1.311,1.015-2.588,1.592-3.856c0.609-1.254,1.246-2.499,1.965-3.698l0.535-0.902l0.607-0.902l1.215-1.804l2.429-3.609
				c0.813-1.202,1.597-2.415,2.488-3.584l5.201-7.08c1.71-2.374,3.523-4.688,5.308-7.019l5.365-6.986l10.928-13.84
				c7.348-9.18,14.76-18.324,22.248-27.381L91.575,36.402z"/>
			<path fill="#D9C632" d="M87.726,33.206c-7.551,9.133-14.977,18.294-22.369,27.53L54.354,74.671l-5.423,7.062
				c-1.806,2.357-3.629,4.687-5.385,7.121l-5.312,7.232c-0.896,1.175-1.746,2.48-2.606,3.752l-2.575,3.83l-1.286,1.916l-0.643,0.958
				l-0.649,1.091c-0.869,1.456-1.648,2.967-2.39,4.501c-0.71,1.552-1.395,3.12-1.963,4.753c-0.3,0.792-0.64,1.889-0.932,2.874
				c-0.271,1.012-0.547,2.027-0.762,3.049c-0.447,2.045-0.697,4.108-0.834,6.161c-0.076,2.048-0.025,4.087,0.251,6.075
				c0.602,3.946,1.955,7.757,4.401,10.858c2.411,3.107,5.83,5.422,9.605,6.541c1.874,0.598,3.835,0.942,5.818,1.061
				c0.99,0.085,1.988,0.084,2.989,0.057c1.014,0.034,1.977-0.182,2.917-0.36c1.441-0.416,2.878-0.813,4.304-1.474
				c1.425-0.636,2.837-1.372,4.234-2.152c1.396-0.782,2.784-1.588,4.163-2.422l3.027-1.859l5.264-3.338l3.229-2.111l6.405-4.3
				l3.183-2.18l1.587-1.097l0.792-0.55l0.396-0.275l0.196-0.136l-0.021,0.24c-0.389,4.531-0.705,9.069-0.902,13.613l-0.114,3.409
				l-0.03,1.705l-0.004,1.379c-0.005,0.948,0.013,1.578,0.024,2.299c0.064,2.825,0.163,5.676,0.615,8.352
				c0.11,0.668,0.255,1.317,0.39,1.973c0.168,0.633,0.333,1.27,0.531,1.884c0.482,1.176,0.959,2.336,1.63,3.479
				c1.801,2.271,4.289,3.966,6.964,5.028c2.674,1.108,5.596,1.579,8.557,1.7c2.973,0.086,6.01-0.259,9.004-0.907
				c2.948-0.629,6.158-1.729,8.263-2.646c4.66-2.008,9.072-4.584,13.098-8.281c1-0.938,1.979-1.93,2.902-3.058
				c0.469-0.524,0.914-1.198,1.36-1.799c0.477-0.63,0.774-1.208,1.163-1.82c1.408-2.4,2.422-4.715,3.314-7
				c1.712-4.552,2.931-9.004,3.947-13.432c1.021-4.428,1.839-8.831,2.541-13.227c0.356-2.199,0.672-4.394,0.975-6.59l0.428-3.293
				l0.254-2.096c0.278-2.454,0.519-4.912,0.694-7.375l0.009-0.127c-0.001-0.047,0.073-0.011,0.106-0.021l0.255,0.007l0.511,0.014
				l1.021,0.028l2.043,0.057l4.086,0.113l10.132,0.281l8.171,0.227l4.086,0.113l2.043,0.057l0.255,0.007l0.128,0.003
				c0.073-0.012-0.029,0.051-0.036,0.072l-0.344,0.378l-0.677,0.765c-1.989,2.284-3.885,4.651-5.636,7.123
				c-0.886,1.229-1.712,2.499-2.506,3.788c-0.403,0.651-0.752,1.293-1.148,1.981l-0.968,1.881c-0.323,0.625-0.647,1.238-0.955,1.958
				l-0.928,2.081c-0.312,0.689-0.562,1.466-0.841,2.197c-0.592,1.504-0.958,2.924-1.385,4.37c-0.403,1.446-0.713,2.919-1.034,4.386
				c-0.241,1.484-0.559,2.956-0.699,4.457c-0.414,2.983-0.487,6.01-0.465,9.034c0.099,3.029,0.386,6.063,0.938,9.086
				c0.583,3.021,1.393,6.028,2.521,8.992c1.168,2.958,2.649,5.876,4.635,8.655c1.993,2.766,4.363,5.214,7.036,7.273
				c2.672,2.052,5.616,3.682,8.685,4.908c3.074,1.224,6.278,2.042,9.561,2.443c1.64,0.206,3.305,0.291,4.988,0.27
				c0.836,0.01,1.696-0.083,2.543-0.13c0.846-0.074,1.712-0.211,2.654-0.348c1.852-0.374,3.706-0.811,5.421-1.626
				c0.867-0.386,1.693-0.823,2.528-1.306c0.867-0.523,1.565-0.96,2.252-1.466c2.762-1.969,5.027-4.125,7.084-6.377
				c4.088-4.523,7.402-9.396,10.125-14.824c1.35-2.724,2.532-5.599,3.387-8.857c0.43-1.62,0.759-3.372,0.886-5.329
				c0.127-1.926,0.063-4.169-0.771-6.746c-0.168-0.612-0.488-1.298-0.81-1.951l-0.248-0.488c-0.084-0.16-0.157-0.309-0.315-0.542
				c-0.277-0.423-0.578-0.838-0.896-1.237c-0.159-0.2-0.322-0.395-0.489-0.585l-0.253-0.282c-0.107-0.118-0.129-0.136-0.156-0.161
				l-0.36-0.341l-0.181-0.171l-0.091-0.085l-0.045-0.042c-1.103-0.95-0.348-0.293-0.612-0.519l-0.591-0.41
				c-0.796-0.541-1.578-1.084-2.413-1.58c-0.903-0.452-1.821-0.883-2.744-1.291c-3.83-1.512-8.581-1.887-12.874-0.422
				c-4.286,1.436-7.918,4.483-10.118,8.322c-0.27,0.483-0.564,0.956-0.787,1.46c-0.211,0.51-0.414,1.025-0.607,1.543
				c-0.433,1.025-0.629,2.108-0.844,3.189c-0.259,1.08-0.224,2.168-0.275,3.258l-0.01,0.817l0.096,0.942
				c0.073,0.629,0.165,1.258,0.274,1.881l0.176,0.929l0.143,0.484l0.282,0.953l0.141,0.477l0.035,0.119
				c0.376,1.124,0.164,0.453,0.276,0.768l0.11,0.245c0.151,0.326,0.317,0.647,0.495,0.959l0.264,0.439l0.136,0.194l0.273,0.387
				c0.18,0.249,0.394,0.542,0.521,0.688c1.2,1.484,2.185,2.488,3.238,3.554c2.074,2.079,4.164,3.973,6.327,5.808
				c4.334,3.646,8.867,7.041,13.926,10.029c1.274,0.74,2.557,1.471,3.918,2.142c0.667,0.345,1.348,0.68,2.061,0.99l1.152,0.515
				c0.402,0.185,0.861,0.353,1.297,0.523c3.525,1.338,7.215,2.331,10.912,2.384c3.672,0.067,7.41-0.709,10.543-2.673
				c0.736-0.544,1.508-1.055,2.195-1.658l0.985-0.958c0.329-0.318,0.669-0.627,0.932-1.007l0.846-1.086
				c0.284-0.361,0.574-0.715,0.795-1.131l1.429-2.401l8.832-17.107c0.952-1.811,1.85-3.64,2.738-5.472l1.342-2.744l0.672-1.373
				c0.231-0.343,0.42-1.33,0.726-0.508c1.644,2.483,3.363,4.917,5.149,7.3c0.893,1.192,1.803,2.372,2.742,3.527l0.703,0.868
				l0.322,0.39l0.627,0.736c0.886,1.041,1.757,2.085,2.697,3.107c0.929,1.026,1.83,2.059,2.829,3.063
				c0.979,1.01,1.932,2.025,3.011,3.009l1.578,1.484c0.532,0.493,1.141,0.971,1.709,1.455c0.591,0.48,1.131,0.966,1.767,1.438
				l1.979,1.396c0.34,0.231,0.646,0.459,1.014,0.689l1.178,0.684c0.798,0.43,1.609,0.841,2.445,1.186
				c1.659,0.727,3.398,1.231,5.155,1.603c3.521,0.72,7.162,0.749,10.699,0.057c1.771-0.331,3.513-0.861,5.195-1.567
				c1.687-0.693,3.312-1.576,4.825-2.646c1.521-1.056,2.943-2.287,4.186-3.672c1.256-1.37,2.364-2.891,3.265-4.508
				c0.931-1.605,1.635-3.303,2.184-5.016c0.269-0.863,0.511-1.724,0.669-2.545l0.134-0.625l0.058-0.283l0.021-0.138l0.079-0.553
				c0.202-1.48,0.078-2.979-0.104-4.454c-0.654-5.921-1.254-11.848-2.019-17.756l-0.18-1.464c-0.001-0.048-0.029-0.152-0.008-0.153
				l0.133,0.128l0.266,0.256l0.531,0.512l2.111,2.06c1.404,1.376,2.811,2.75,4.186,4.156c1.376,1.405,2.782,2.78,4.134,4.209
				l4.039,4.299c0.677,0.714,1.333,1.447,2.035,2.135l0.53,0.513l0.065,0.064l0.027,0.026l-0.044-0.041l-0.177-0.162l0.611,0.563
				c0.94,0.859,1.862,1.623,2.804,2.42c3.79,3.101,7.812,5.823,11.879,8.065c4.066,2.257,8.182,4.018,12.149,5.141
				c3.982,1.084,7.725,1.569,11.419,0.988c0.826-0.158,1.665-0.369,2.488-0.75c0.216-0.091,0.395-0.213,0.601-0.334
				c0.213-0.104,0.385-0.267,0.563-0.417c0.33-0.322,0.611-0.669,0.841-1.023c0.909-1.42,1.348-2.894,1.735-4.424
				c0.727-3.054,0.996-6.468,0.78-10.351c-0.219-3.874-0.933-8.115-1.822-12.374c-0.442-2.132-0.931-4.278-1.45-6.422l-0.795-3.216
				l-0.781-3.037c-3.209-12.184-6.859-24.135-10.616-35.998c-1.9-6.026-3.847-11.696-5.132-17.252
				c-1.299-5.542-2.003-11.005-1.518-15.989c0.482-4.986,2.158-9.359,5.131-13.03c1.483-1.838,3.271-3.519,5.313-5.025
				c2.064-1.489,4.36-2.802,6.778-3.995l-2.152-4.517c-2.658,1.308-5.223,2.77-7.585,4.477c-2.343,1.726-4.463,3.703-6.253,5.923
				c-3.61,4.428-5.678,9.916-6.213,15.686c-0.555,5.783,0.259,11.751,1.626,17.61c1.364,5.876,3.361,11.676,5.234,17.622
				c3.745,11.826,7.373,23.71,10.546,35.758c1.738,6.706,3.482,13.775,4.374,20.422c0.429,3.326,0.655,6.511,0.487,9.593
				c-0.109,1.536-0.252,3.082-0.885,4.539c-0.162,0.362-0.379,0.708-0.653,1.014c-0.289,0.301-0.664,0.498-1.047,0.633
				c-0.771,0.272-1.575,0.354-2.364,0.385c-1.773,0.025-3.499-0.233-5.231-0.634c-1.729-0.399-3.446-0.939-5.157-1.586
				c-3.421-1.303-6.813-2.991-10.102-4.978c-3.291-1.979-6.482-4.251-9.496-6.768c-0.747-0.642-1.492-1.267-2.225-1.946
				l-0.791-0.735l-0.795-0.769c-1.054-1.033-2.038-2.132-3.053-3.203l-6.06-6.449c-2.026-2.143-4.136-4.206-6.199-6.313
				c-2.063-2.109-4.173-4.17-6.28-6.234l-3.166-3.09l-0.797-0.768l-0.398-0.384l-0.198-0.192c-0.034,0.002,0.01,0.158,0.011,0.229
				l0.271,2.196c1.146,8.862,2.046,17.753,3.027,26.634c0.272,2.212,0.46,4.46,0.156,6.681c-0.084,0.562-0.132,1.05-0.314,1.817
				c-0.134,0.701-0.336,1.405-0.553,2.108c-0.448,1.397-1.016,2.771-1.765,4.057c-0.721,1.299-1.606,2.512-2.613,3.608
				c-0.991,1.11-2.129,2.092-3.349,2.938c-1.213,0.86-2.523,1.572-3.889,2.132c-1.361,0.571-2.778,1.005-4.223,1.272
				c-2.883,0.566-5.869,0.542-8.743-0.046c-2.854-0.579-5.691-1.763-8.02-3.424c-4.646-3.209-8.351-7.073-11.918-11.016
				c-0.902-0.979-1.748-1.996-2.607-3.004l-0.631-0.742l-0.524-0.63l-1.055-1.302c-1.408-1.734-2.773-3.502-4.112-5.291
				c-2.68-3.574-5.26-7.225-7.726-10.95l-0.314-0.479l-0.078-0.12c-0.027-0.066-0.044,0.056-0.066,0.074l-0.126,0.257l-0.503,1.029
				l-1.007,2.059l-2.014,4.117c-1.334,2.749-2.679,5.492-4.104,8.198l-9.483,18.373l-1.084,1.978
				c-0.351,0.667-0.834,1.24-1.245,1.865c-0.196,0.32-0.463,0.583-0.72,0.854l-0.77,0.814c-0.542,0.511-1.162,0.939-1.75,1.396
				c-2.534,1.631-5.616,2.186-8.59,2.021c-2.997-0.156-5.94-0.999-8.752-2.1c-0.704-0.256-1.412-0.59-2.033-0.868
				c-0.644-0.279-1.267-0.585-1.881-0.904c-1.247-0.613-2.442-1.295-3.631-1.985c-4.731-2.792-9.084-6.045-13.23-9.535
				c-2.069-1.754-4.075-3.574-6.014-5.518c-0.975-0.981-1.914-1.955-2.869-3.138c-0.114-0.132-0.247-0.322-0.373-0.494l-0.188-0.263
				l-0.094-0.132l-0.128-0.218c-0.086-0.152-0.167-0.308-0.244-0.465l-0.057-0.118c-0.043-0.118,0.019,0.095-0.11-0.293
				l-0.035-0.119l-0.141-0.476l-0.282-0.953l-0.141-0.479l-0.101-0.639c-0.309-1.751-0.307-3.345-0.03-4.933
				c0.165-0.792,0.288-1.594,0.62-2.34l0.438-1.133c0.161-0.371,0.388-0.711,0.583-1.065c1.61-2.81,4.26-5.03,7.365-6.076
				c3.113-1.057,6.563-0.801,9.482,0.34l2.113,0.995c0.655,0.395,1.275,0.834,1.91,1.256l0.472,0.322
				c0.1,0.083-0.14-0.13,0.237,0.197l0.045,0.042l0.091,0.085l0.181,0.171l0.361,0.341c0.126,0.122,0.341,0.402,0.5,0.605
				c0.17,0.223,0.335,0.451,0.492,0.681c0.164,0.235,0.226,0.421,0.341,0.636c0.201,0.417,0.416,0.84,0.522,1.261
				c0.555,1.698,0.637,3.346,0.527,4.867c-0.1,1.534-0.364,2.992-0.736,4.385c-0.731,2.796-1.79,5.402-3.026,7.891
				c-2.488,4.969-5.601,9.542-9.335,13.667c-1.874,2.057-3.926,3.991-6.286,5.672c-1.147,0.84-2.515,1.639-3.875,2.263
				c-1.367,0.667-2.858,0.995-4.339,1.297c-5.845,0.955-11.636,0.137-16.981-1.962c-2.663-1.064-5.204-2.472-7.497-4.232
				c-2.29-1.766-4.318-3.866-6.016-6.22c-1.689-2.364-2.996-4.919-4.035-7.547c-1.003-2.641-1.734-5.354-2.266-8.095
				c-0.5-2.747-0.762-5.521-0.854-8.296c-0.017-2.773,0.044-5.554,0.429-8.299c0.125-1.381,0.424-2.736,0.643-4.103
				c0.299-1.351,0.58-2.708,0.953-4.041c0.395-1.329,0.735-2.659,1.262-3.981c0.252-0.656,0.466-1.338,0.753-1.97l0.85-1.904
				c0.56-1.279,1.222-2.428,1.827-3.648c0.576-0.994,1.113-1.985,1.713-2.953c1.191-1.934,2.43-3.839,3.759-5.682
				c2.627-3.707,5.47-7.258,8.454-10.684l1.016-1.147l0.516-0.567l0.064-0.07l0.033-0.035c-0.008-0.004-0.03-0.002-0.044-0.003
				l-0.191-0.005l-0.384-0.01l-3.063-0.085l-6.129-0.17l-12.257-0.34l-12.91-0.358l-6.129-0.17l-3.064-0.085l-1.531-0.042
				l-0.767-0.021l-0.383-0.01c-0.05,0.014-0.16-0.04-0.159,0.03l-0.013,0.191c-0.265,3.694-0.625,7.381-1.043,11.062l-0.343,2.844
				l-0.421,3.24c-0.297,2.159-0.606,4.316-0.957,6.471c-0.688,4.31-1.487,8.611-2.476,12.895c-0.981,4.284-2.159,8.55-3.744,12.765
				c-0.82,2.103-1.746,4.195-2.945,6.237c-0.588,1.013-1.307,2.043-2.071,2.978c-0.764,0.935-1.598,1.778-2.455,2.584
				c-3.463,3.188-7.448,5.539-11.645,7.341c-2.027,0.87-4.467,1.696-6.849,2.252c-2.396,0.559-4.837,0.906-7.268,0.938
				c-2.422,0-4.856-0.249-7.124-1.055c-2.253-0.777-4.414-2.096-5.841-4.038c-0.99-1.966-1.344-4.107-1.594-6.33
				c-0.246-2.215-0.307-4.492-0.34-6.76c-0.028-2.631,0.003-4.01,0.041-5.773c0.038-1.705,0.101-3.41,0.172-5.113
				c0.295-6.816,0.771-13.623,1.354-20.419l0.032-0.36l-0.295,0.205l-0.594,0.414l-1.188,0.825l-2.38,1.645l-4.774,3.27
				c-3.188,2.17-6.389,4.325-9.607,6.451l-4.844,3.166l-5.554,3.526l-2.927,1.796c-1.101,0.668-2.209,1.318-3.323,1.956
				c-2.23,1.275-4.493,2.462-6.836,3.284c-0.768,0.234-1.559,0.487-2.395,0.458c-0.823,0.042-1.646,0.069-2.467,0.021
				c-1.642-0.045-3.277-0.281-4.852-0.727c-3.169-0.823-6.052-2.747-7.978-5.395c-1.962-2.645-2.892-5.898-3.234-9.159
				c-0.148-1.643-0.13-3.305-0.012-4.965c0.159-1.659,0.403-3.316,0.784-4.952c0.378-1.614,0.857-3.296,1.41-4.792
				c0.51-1.472,1.133-2.895,1.777-4.304c0.675-1.394,1.383-2.772,2.177-4.1l0.592-0.997l0.625-0.93l1.251-1.86l2.502-3.719
				c0.836-1.237,1.653-2.496,2.547-3.668l5.257-7.156c1.733-2.404,3.551-4.726,5.346-7.07l5.395-7.024l10.965-13.887
				c7.37-9.208,14.789-18.361,22.309-27.456L87.726,33.206z"/>
			<path fill="#B3CF84" d="M83.877,30.01c-7.583,9.171-15.015,18.34-22.431,27.605L50.407,71.597l-5.452,7.099
				c-1.815,2.371-3.645,4.708-5.423,7.172l-5.367,7.308c-0.897,1.178-1.78,2.529-2.665,3.836l-2.648,3.94l-1.322,1.972l-0.66,0.986
				l-0.707,1.186c-0.943,1.583-1.794,3.229-2.601,4.902c-0.777,1.694-1.522,3.406-2.148,5.202c-0.325,0.862-0.754,2.217-1.091,3.392
				c-0.315,1.216-0.643,2.435-0.887,3.661c-0.514,2.455-0.77,4.924-0.883,7.37c-0.036,2.437,0.085,4.853,0.488,7.185
				c0.861,4.632,2.638,9,5.568,12.558c2.898,3.565,6.853,6.272,11.232,7.686c2.176,0.75,4.462,1.203,6.786,1.396
				c2.299,0.221,4.754,0.194,6.952-0.127c1.708-0.41,3.435-0.725,5.147-1.477c1.713-0.707,3.412-1.566,5.093-2.49
				c1.678-0.927,3.345-1.889,5.003-2.889l3.128-1.922l4.974-3.151l1.615-1.056l3.203-2.15l1.591-1.09l0.793-0.548l0.396-0.275
				l0.197-0.138l0.099-0.068l-0.011,0.12c-0.194,2.266-0.353,4.534-0.451,6.806l-0.057,1.705l-0.016,0.853
				c-0.006,0.073-0.008,0.145-0.006,0.217l0.006,1.086c-0.006,1.249,0.021,1.966,0.037,2.837c0.097,3.382,0.233,6.808,0.891,9.943
				c0.158,0.783,0.367,1.535,0.563,2.296c0.242,0.727,0.477,1.458,0.761,2.153c0.688,1.311,1.373,2.577,2.186,3.892
				c2.173,2.601,4.989,4.671,8.086,6.019c3.08,1.411,6.489,2.103,9.989,2.345c3.514,0.205,7.146-0.139,10.739-0.875
				c1.795-0.373,3.583-0.852,5.344-1.42l1.341-0.459l1.051-0.381c0.648-0.258,1.301-0.507,1.942-0.781
				c5.124-2.213,9.962-5.015,14.55-9.221c1.143-1.071,2.268-2.21,3.352-3.531c0.538-0.608,1.091-1.421,1.616-2.136l0.394-0.557
				l0.324-0.52l0.641-1.046c1.617-2.757,2.719-5.295,3.684-7.762c1.839-4.89,3.1-9.526,4.151-14.1
				c1.054-4.573,1.89-9.077,2.605-13.559c0.363-2.242,0.685-4.476,0.991-6.708l0.6-4.694c0.139-1.227,0.26-2.456,0.348-3.687
				c-0.031-0.126,0.116-0.054,0.185-0.071l0.256,0.007l0.511,0.014l1.021,0.028l2.043,0.057l7.354,0.204l4.085,0.113l2.043,0.057
				l1.021,0.028l0.128,0.003c0.044,0,0.104-0.006,0.046,0.038l-0.172,0.189l-0.339,0.382c-0.994,1.142-1.942,2.326-2.817,3.561
				c-0.443,0.614-0.856,1.25-1.253,1.894c-0.206,0.334-0.366,0.627-0.584,1.01l-1.008,1.956c-0.335,0.648-0.669,1.281-1.01,2.073
				l-1.007,2.259c-0.335,0.747-0.623,1.618-0.929,2.424c-0.656,1.686-1.048,3.194-1.507,4.758c-0.436,1.56-0.771,3.149-1.116,4.732
				c-0.265,1.602-0.601,3.19-0.756,4.812c-0.443,3.22-0.529,6.494-0.501,9.768c0.105,3.282,0.417,6.578,1.02,9.877
				c0.636,3.3,1.523,6.603,2.776,9.89c1.297,3.287,2.953,6.568,5.234,9.763c2.289,3.178,5.002,5.973,8.057,8.326
				c3.052,2.343,6.398,4.195,9.873,5.584c3.481,1.386,7.097,2.31,10.813,2.764c1.857,0.232,3.748,0.33,5.671,0.305
				c0.952,0.008,1.945-0.091,2.915-0.15c0.482-0.025,0.993-0.114,1.488-0.173l1.622-0.239c2.223-0.445,4.441-0.991,6.502-1.956
				c1.043-0.461,2.03-0.979,3.041-1.563c1.069-0.64,1.855-1.14,2.645-1.718c3.163-2.258,5.644-4.634,7.883-7.083
				c4.441-4.919,7.959-10.092,10.916-15.979c1.463-2.959,2.769-6.103,3.746-9.823c0.487-1.847,0.881-3.893,1.036-6.274
				c0.145-2.332,0.099-5.17-1.015-8.625c-0.23-0.804-0.654-1.752-1.097-2.642l-0.342-0.664c-0.115-0.216-0.216-0.414-0.444-0.76
				c-0.398-0.616-0.834-1.218-1.3-1.793c-0.233-0.288-0.474-0.568-0.72-0.841l-0.373-0.403l-0.158-0.165l-0.046-0.043l-0.36-0.341
				l-0.181-0.17l-0.091-0.085l-0.045-0.043c-1.827-1.573-0.557-0.472-0.987-0.839l-0.709-0.5c-0.959-0.658-1.902-1.305-2.918-1.902
				c-1.105-0.564-2.235-1.096-3.375-1.588c-1.196-0.453-2.507-0.803-3.774-1.132c-1.297-0.296-2.718-0.413-4.079-0.532
				c-1.385-0.066-2.829,0.061-4.23,0.188c-1.403,0.225-2.814,0.564-4.181,0.971c-5.466,1.827-10.08,5.701-12.87,10.568
				c-0.344,0.613-0.708,1.218-0.993,1.855c-0.272,0.643-0.532,1.296-0.775,1.953c-0.533,1.305-0.803,2.669-1.067,4.039
				c-0.309,1.37-0.296,2.736-0.348,4.113l-0.006,1.031c0.032,0.413,0.071,0.827,0.119,1.242c0.094,0.829,0.219,1.659,0.373,2.478
				c0.077,0.41,0.161,0.816,0.253,1.22l0.143,0.489l0.282,0.953l0.142,0.477l0.035,0.119c0.624,1.86,0.261,0.731,0.442,1.242
				l0.164,0.373c0.226,0.495,0.476,0.981,0.746,1.453c0.126,0.219,0.299,0.504,0.399,0.659l0.177,0.257l0.359,0.51
				c0.234,0.325,0.528,0.722,0.667,0.882c1.446,1.785,2.476,2.819,3.608,3.97c2.209,2.214,4.383,4.182,6.641,6.098
				c4.521,3.801,9.234,7.338,14.622,10.522c1.359,0.79,2.729,1.57,4.205,2.298c0.72,0.372,1.458,0.734,2.24,1.076l1.315,0.585
				c0.472,0.212,1.027,0.42,1.55,0.622c4.236,1.577,8.673,2.718,13.072,2.668c1.097-0.022,2.198-0.01,3.273-0.205l1.623-0.216
				l1.586-0.397c2.13-0.488,4.136-1.401,6.014-2.507c0.884-0.632,1.806-1.224,2.639-1.919l1.202-1.102
				c0.401-0.367,0.814-0.722,1.144-1.161l1.05-1.255c0.352-0.416,0.712-0.824,0.985-1.316l1.774-2.824l8.18-15.843
				c0.481-0.916,0.93-1.831,1.374-2.745l0.671-1.373l0.336-0.686c0.115-0.171,0.21-0.665,0.362-0.254
				c0.822,1.242,1.682,2.458,2.575,3.65c0.446,0.596,0.901,1.186,1.371,1.764l0.352,0.434c0.072,0.085,0.093,0.125,0.12,0.149
				l0.623,0.73c0.913,1.073,1.809,2.146,2.787,3.211c0.965,1.065,1.896,2.132,2.947,3.19c1.027,1.06,2.021,2.118,3.176,3.173
				l1.681,1.579c0.568,0.526,1.237,1.058,1.855,1.582c0.647,0.527,1.226,1.044,1.936,1.573l2.234,1.577
				c0.386,0.262,0.725,0.511,1.153,0.779l1.399,0.814c0.946,0.512,1.911,0.998,2.901,1.408c1.972,0.859,4.029,1.462,6.109,1.9
				c4.166,0.851,8.464,0.885,12.654,0.066c2.097-0.394,4.166-1.021,6.169-1.861c2.007-0.827,3.947-1.88,5.763-3.16
				c1.822-1.266,3.529-2.747,5.021-4.406c1.506-1.643,2.837-3.473,3.918-5.407c1.111-1.924,1.953-3.946,2.602-5.975l0.448-1.526
				c0.139-0.505,0.227-0.968,0.337-1.455l0.153-0.723l0.064-0.312l0.01-0.069l0.04-0.276c0.101-0.74,0.038-1.489-0.053-2.227
				c-0.327-2.96-0.627-5.924-1.009-8.878l-0.09-0.732c-0.001-0.024-0.016-0.076-0.004-0.077l0.066,0.064l0.133,0.128l0.266,0.256
				l1.055,1.03c0.703,0.688,1.406,1.375,2.094,2.078c1.396,1.384,2.745,2.816,4.086,4.254c0.339,0.356,0.667,0.723,1.018,1.067
				l0.266,0.256l0.033,0.032c0,0.001,0.021,0.02,0.006,0.006l-0.113-0.104l-0.453-0.416l0.703,0.647
				c1.148,1.04,2.246,1.942,3.383,2.894c4.566,3.685,9.418,6.858,14.263,9.364c4.844,2.528,9.681,4.361,14.196,5.304
				c4.538,0.908,8.589,0.894,12.448-0.244c0.864-0.285,1.737-0.624,2.614-1.114l0.328-0.191c0.046-0.045,0.131-0.035,0.144-0.125
				l0.171-0.098c0.236-0.118,0.433-0.294,0.637-0.455c0.387-0.338,0.731-0.686,1.029-1.032c1.186-1.384,1.92-2.784,2.586-4.309
				c1.286-3.026,2.05-6.669,2.047-11.108c0.001-4.423-0.757-9.473-1.771-14.562c-0.505-2.548-1.076-5.121-1.691-7.693l-0.945-3.859
				l-0.915-3.562c-3.245-12.321-6.917-24.338-10.685-36.238l-2.79-8.771c-0.861-2.793-1.628-5.491-2.241-8.111
				c-1.23-5.226-1.824-10.183-1.409-14.368c0.43-4.203,1.715-7.462,4.05-10.375c1.176-1.457,2.632-2.841,4.373-4.127
				c1.768-1.271,3.796-2.435,5.973-3.513l-2.152-4.516c-2.418,1.192-4.714,2.506-6.778,3.995c-2.043,1.506-3.83,3.187-5.313,5.025
				c-2.973,3.671-4.648,8.044-5.131,13.03c-0.485,4.984,0.219,10.447,1.518,15.989c1.285,5.556,3.231,11.226,5.132,17.252
				c3.757,11.863,7.407,23.814,10.616,35.998l0.781,3.037l0.795,3.216c0.52,2.145,1.008,4.29,1.45,6.422
				c0.89,4.259,1.604,8.5,1.822,12.374c0.216,3.883-0.054,7.296-0.78,10.351c-0.388,1.531-0.826,3.004-1.735,4.424
				c-0.229,0.354-0.511,0.701-0.841,1.023c-0.179,0.149-0.351,0.313-0.563,0.417c-0.206,0.121-0.385,0.244-0.601,0.334
				c-0.823,0.381-1.662,0.592-2.488,0.75c-3.694,0.582-7.437,0.096-11.419-0.988c-3.968-1.123-8.083-2.883-12.149-5.141
				c-4.067-2.242-8.089-4.965-11.879-8.065c-0.941-0.797-1.863-1.561-2.804-2.42l-0.611-0.563l0.177,0.162l0.044,0.041l-0.027-0.026
				l-0.065-0.064l-0.53-0.513c-0.702-0.688-1.358-1.421-2.035-2.135l-4.039-4.299c-1.352-1.429-2.758-2.804-4.134-4.209
				c-1.375-1.406-2.781-2.78-4.186-4.156l-2.111-2.06l-0.531-0.512l-0.266-0.256l-0.133-0.128c-0.021,0.001,0.007,0.105,0.008,0.153
				l0.18,1.464c0.765,5.908,1.364,11.835,2.019,17.756c0.183,1.475,0.307,2.973,0.104,4.454l-0.079,0.553l-0.021,0.138l-0.058,0.283
				l-0.134,0.625c-0.158,0.821-0.4,1.682-0.669,2.545c-0.549,1.713-1.253,3.411-2.184,5.016c-0.9,1.617-2.009,3.138-3.265,4.508
				c-1.242,1.385-2.664,2.616-4.186,3.672c-1.514,1.07-3.139,1.953-4.825,2.646c-1.683,0.706-3.425,1.236-5.195,1.567
				c-3.537,0.692-7.179,0.663-10.699-0.057c-1.757-0.372-3.496-0.876-5.155-1.603c-0.836-0.344-1.647-0.756-2.445-1.186
				l-1.178-0.684c-0.367-0.23-0.674-0.458-1.014-0.689l-1.979-1.396c-0.636-0.472-1.176-0.958-1.767-1.438
				c-0.568-0.484-1.177-0.962-1.709-1.455l-1.578-1.484c-1.079-0.984-2.031-2-3.011-3.009c-0.999-1.004-1.9-2.037-2.829-3.063
				c-0.94-1.021-1.812-2.066-2.697-3.107l-0.627-0.736l-0.322-0.39l-0.703-0.868c-0.939-1.156-1.85-2.335-2.742-3.527
				c-1.786-2.383-3.506-4.816-5.149-7.3c-0.306-0.822-0.494,0.165-0.726,0.508l-0.672,1.373l-1.342,2.744
				c-0.889,1.832-1.786,3.661-2.738,5.472l-8.832,17.107l-1.429,2.401c-0.221,0.416-0.511,0.77-0.795,1.131l-0.846,1.086
				c-0.263,0.38-0.603,0.689-0.932,1.007l-0.985,0.958c-0.688,0.603-1.459,1.113-2.195,1.658c-3.133,1.964-6.871,2.741-10.543,2.673
				c-3.697-0.053-7.387-1.045-10.912-2.384c-0.436-0.17-0.895-0.339-1.297-0.523l-1.152-0.515c-0.713-0.31-1.394-0.645-2.061-0.99
				c-1.361-0.67-2.644-1.402-3.918-2.142c-5.059-2.988-9.592-6.383-13.926-10.029c-2.163-1.835-4.253-3.729-6.327-5.808
				c-1.054-1.066-2.038-2.07-3.238-3.554c-0.127-0.146-0.341-0.439-0.521-0.688l-0.273-0.387l-0.136-0.194l-0.264-0.439
				c-0.178-0.312-0.344-0.633-0.495-0.959l-0.11-0.245c-0.112-0.314,0.1,0.356-0.276-0.768l-0.035-0.119l-0.141-0.477l-0.282-0.953
				l-0.143-0.484L206.286,156c-0.109-0.623-0.201-1.252-0.274-1.881l-0.096-0.942l0.01-0.817c0.052-1.089,0.017-2.178,0.275-3.258
				c0.215-1.081,0.411-2.165,0.844-3.189c0.193-0.519,0.396-1.034,0.607-1.543c0.223-0.504,0.518-0.977,0.787-1.46
				c2.2-3.838,5.832-6.886,10.118-8.322c4.293-1.464,9.044-1.089,12.874,0.422c0.923,0.408,1.841,0.839,2.744,1.291
				c0.835,0.496,1.617,1.039,2.413,1.58l0.591,0.41c0.265,0.226-0.49-0.431,0.612,0.519l0.045,0.042l0.091,0.085l0.181,0.171
				l0.36,0.341c0.027,0.025,0.049,0.042,0.156,0.161l0.253,0.282c0.167,0.19,0.33,0.386,0.489,0.585
				c0.318,0.399,0.619,0.814,0.896,1.237c0.158,0.233,0.231,0.382,0.315,0.542l0.248,0.488c0.321,0.653,0.642,1.339,0.81,1.951
				c0.834,2.577,0.897,4.82,0.771,6.746c-0.127,1.958-0.456,3.709-0.886,5.329c-0.854,3.258-2.037,6.133-3.387,8.857
				c-2.723,5.428-6.037,10.301-10.125,14.824c-2.057,2.253-4.322,4.408-7.084,6.377c-0.687,0.506-1.385,0.943-2.252,1.466
				c-0.835,0.483-1.661,0.92-2.528,1.306c-1.715,0.815-3.569,1.252-5.421,1.626c-0.942,0.137-1.809,0.274-2.654,0.348
				c-0.847,0.047-1.707,0.141-2.543,0.13c-1.684,0.021-3.349-0.063-4.988-0.27c-3.282-0.4-6.486-1.219-9.561-2.443
				c-3.068-1.227-6.013-2.856-8.685-4.908c-2.673-2.06-5.043-4.507-7.036-7.273c-1.985-2.779-3.467-5.697-4.635-8.655
				c-1.128-2.964-1.938-5.972-2.521-8.992c-0.552-3.023-0.839-6.058-0.938-9.086c-0.022-3.023,0.051-6.051,0.465-9.034
				c0.141-1.501,0.458-2.973,0.699-4.457c0.321-1.467,0.631-2.94,1.034-4.386c0.427-1.446,0.793-2.866,1.385-4.37
				c0.279-0.731,0.529-1.508,0.841-2.197l0.928-2.081c0.308-0.72,0.632-1.333,0.955-1.958l0.968-1.881
				c0.396-0.688,0.745-1.331,1.148-1.981c0.794-1.289,1.62-2.559,2.506-3.788c1.751-2.471,3.646-4.839,5.636-7.123l0.677-0.765
				l0.344-0.378c0.007-0.021,0.109-0.084,0.036-0.072l-0.128-0.003l-0.255-0.007l-2.043-0.057l-4.086-0.113l-8.171-0.227
				l-10.132-0.281l-4.086-0.113l-2.043-0.057l-1.021-0.028l-0.511-0.014l-0.255-0.007c-0.033,0.009-0.107-0.026-0.106,0.021
				l-0.009,0.127c-0.176,2.463-0.416,4.921-0.694,7.375l-0.254,2.096l-0.428,3.293c-0.303,2.196-0.618,4.391-0.975,6.59
				c-0.702,4.396-1.52,8.798-2.541,13.227c-1.017,4.428-2.235,8.88-3.947,13.432c-0.893,2.285-1.906,4.6-3.314,7
				c-0.389,0.611-0.687,1.189-1.163,1.82c-0.446,0.601-0.892,1.274-1.36,1.799c-0.924,1.128-1.902,2.119-2.902,3.058
				c-4.025,3.697-8.438,6.273-13.098,8.281c-2.104,0.917-5.314,2.018-8.263,2.646c-2.994,0.648-6.031,0.993-9.004,0.907
				c-2.961-0.122-5.883-0.592-8.557-1.7c-2.675-1.063-5.163-2.757-6.964-5.028c-0.671-1.144-1.147-2.303-1.63-3.479
				c-0.198-0.614-0.363-1.25-0.531-1.884c-0.135-0.655-0.279-1.304-0.39-1.973c-0.452-2.675-0.551-5.526-0.615-8.352
				c-0.012-0.722-0.029-1.352-0.024-2.299l0.004-1.379l0.03-1.705l0.114-3.409c0.197-4.543,0.514-9.082,0.902-13.613l0.021-0.24
				l-0.196,0.136l-0.396,0.275l-0.792,0.55l-1.587,1.097l-3.183,2.18l-6.405,4.3l-3.229,2.111l-5.264,3.338l-3.027,1.859
				c-1.379,0.834-2.768,1.64-4.163,2.422c-1.397,0.78-2.81,1.516-4.234,2.152c-1.426,0.66-2.862,1.058-4.304,1.474
				c-0.94,0.178-1.903,0.394-2.917,0.36c-1.001,0.027-1.999,0.028-2.989-0.057c-1.983-0.119-3.944-0.463-5.818-1.061
				c-3.775-1.119-7.194-3.434-9.605-6.541c-2.446-3.102-3.8-6.912-4.401-10.858c-0.276-1.988-0.327-4.027-0.251-6.075
				c0.137-2.053,0.387-4.115,0.834-6.161c0.215-1.022,0.49-2.038,0.762-3.049c0.292-0.985,0.632-2.081,0.932-2.874
				c0.568-1.634,1.253-3.201,1.963-4.753c0.741-1.534,1.521-3.045,2.39-4.501l0.649-1.091l0.643-0.958l1.286-1.916l2.575-3.83
				c0.86-1.272,1.71-2.577,2.606-3.752l5.312-7.232c1.756-2.435,3.579-4.764,5.385-7.121l5.423-7.062l11.002-13.935
				c7.393-9.236,14.818-18.397,22.369-27.53L83.877,30.01z"/>
			<path fill="#8CD8D6" d="M80.027,26.814c-7.615,9.209-15.053,18.387-22.491,27.679L46.46,68.522l-5.481,7.137
				c-1.825,2.385-3.66,4.728-5.461,7.224l-5.423,7.383c-0.899,1.18-1.814,2.577-2.724,3.92l-2.723,4.051l-1.357,2.028l-0.678,1.014
				l-0.764,1.281c-1.019,1.711-1.94,3.491-2.813,5.304c-0.845,1.836-1.65,3.694-2.335,5.651c-0.35,0.932-0.866,2.547-1.249,3.911
				c-0.359,1.419-0.737,2.842-1.012,4.272c-0.58,2.865-0.842,5.739-0.932,8.58c0.004,2.825,0.195,5.618,0.727,8.295
				c1.121,5.318,3.32,10.244,6.734,14.258c3.385,4.023,7.875,7.122,12.861,8.831c2.476,0.901,5.087,1.463,7.753,1.729
				c2.636,0.314,5.46,0.243,7.997,0.049c1.974-0.403,3.992-0.637,5.991-1.48c2.001-0.777,3.988-1.76,5.95-2.828
				c1.961-1.072,3.906-2.19,5.844-3.356l3.229-1.984l4.685-2.965l0.054,4.604c0.128,3.939,0.303,7.939,1.165,11.535
				c0.208,0.897,0.479,1.753,0.737,2.62c0.314,0.82,0.62,1.646,0.989,2.422l2.741,4.305c2.545,2.929,5.69,5.376,9.208,7.01
				c3.486,1.712,7.383,2.626,11.422,2.989c4.056,0.324,8.284-0.018,12.475-0.843c2.094-0.421,4.183-0.965,6.236-1.626l1.572-0.536
				l1.167-0.423c0.706-0.281,1.418-0.553,2.117-0.852c2.798-1.189,5.505-2.576,8.164-4.225c2.658-1.661,5.268-3.542,7.839-5.936
				c0.644-0.611,1.278-1.204,1.915-1.891c0.632-0.649,1.263-1.364,1.884-2.113l0.463-0.557l0.477-0.633l0.934-1.283l0.456-0.649
				l0.37-0.59l0.727-1.187c1.826-3.115,3.017-5.876,4.054-8.525c1.965-5.228,3.268-10.049,4.354-14.767
				c1.087-4.718,1.94-9.323,2.671-13.891c0.37-2.286,0.697-4.557,1.009-6.827l0.517-3.999l4.576,0.126l-2.133,4.258l-1.085,2.437
				c-0.359,0.805-0.685,1.77-1.018,2.651c-0.721,1.868-1.138,3.466-1.629,5.147c-0.466,1.673-0.829,3.378-1.196,5.077
				c-0.288,1.719-0.643,3.424-0.813,5.166c-0.473,3.458-0.572,6.977-0.537,10.502c0.111,3.536,0.448,7.092,1.102,10.667
				c0.688,3.581,1.653,7.177,3.031,10.788c1.426,3.616,3.257,7.261,5.835,10.87c2.585,3.59,5.64,6.732,9.075,9.379
				c3.432,2.634,7.181,4.709,11.063,6.26c3.89,1.548,7.915,2.577,12.066,3.084c2.075,0.259,4.191,0.37,6.354,0.341
				c1.067,0.007,2.194-0.1,3.287-0.17c0.543-0.031,1.129-0.127,1.689-0.196l1.876-0.281c2.595-0.516,5.177-1.171,7.585-2.284
				c1.219-0.538,2.366-1.137,3.553-1.821c1.271-0.758,2.146-1.32,3.038-1.969c3.563-2.547,6.259-5.144,8.682-7.789
				c4.793-5.315,8.514-10.788,11.706-17.135c1.576-3.194,3.005-6.607,4.105-10.79c0.281-1.005,0.513-2.189,0.729-3.329
				c0.108-0.574,0.188-1.252,0.27-1.875l0.114-0.955c0.033-0.331,0.051-0.708,0.072-1.061c0.035-0.735,0.08-1.396,0.069-2.192
				c-0.019-0.819-0.058-1.639-0.116-2.456c-0.195-1.81-0.479-3.653-1.211-5.856c-0.293-0.995-0.821-2.207-1.384-3.332l-0.436-0.84
				l-0.227-0.414c-0.059-0.113-0.231-0.382-0.347-0.564c-0.519-0.808-1.09-1.598-1.704-2.35c-0.307-0.375-0.623-0.742-0.948-1.097
				l-0.494-0.524l-0.252-0.253l-0.361-0.341l-0.18-0.171l-0.091-0.085l-0.045-0.042c-2.553-2.196-0.767-0.651-1.363-1.161
				l-0.827-0.589c-1.12-0.775-2.226-1.527-3.422-2.225c-1.308-0.678-2.649-1.31-4.005-1.885c-1.427-0.543-3.002-0.974-4.523-1.357
				c-1.559-0.354-3.279-0.51-4.924-0.642c-1.676-0.079-3.433,0.062-5.13,0.23c-1.705,0.267-3.423,0.677-5.078,1.181
				c-6.646,2.217-12.244,6.917-15.623,12.814c-0.418,0.741-0.852,1.479-1.198,2.25c-0.335,0.777-0.65,1.567-0.944,2.363
				c-0.633,1.584-1.187,3.229-1.501,4.889c-0.359,1.661-0.63,3.304-0.63,4.968v1.245c0,0.512,0.293,1.027,0.35,1.542
				c0.115,1.03,0.38,2.06,0.579,3.075c0.1,0.508,0.261,1.012,0.38,1.51l0.171,0.494l0.296,0.953l0.147,0.477l0.039,0.119
				c0.872,2.595,0.358,1.008,0.609,1.717l0.219,0.499c0.3,0.664,0.634,1.316,0.999,1.947c0.166,0.293,0.401,0.676,0.534,0.879
				l0.218,0.32l0.445,0.633c0.289,0.402,0.664,0.903,0.813,1.077c1.692,2.085,2.767,3.151,3.979,4.386
				c2.345,2.35,4.603,4.39,6.954,6.388c4.71,3.958,9.603,7.636,15.317,11.017c1.446,0.84,2.901,1.668,4.492,2.455
				c0.772,0.398,1.568,0.789,2.42,1.162l1.479,0.655c0.541,0.239,1.193,0.488,1.802,0.721c4.95,1.815,10.132,3.105,15.233,2.952
				c1.271-0.047,2.548-0.054,3.789-0.299l1.875-0.28l1.83-0.479c2.457-0.593,4.779-1.641,6.954-2.918
				c1.032-0.719,2.104-1.393,3.083-2.181l1.419-1.247c0.474-0.415,0.96-0.815,1.355-1.314l1.253-1.423
				c0.421-0.471,0.852-0.933,1.178-1.501l2.119-3.247l6.161-11.923l1.358-2.632l0.009-0.022l0.009-0.019l3.414,3.948
				c1,1.105,1.961,2.205,3.064,3.318c1.076,1.11,2.111,2.209,3.341,3.337l1.784,1.674c0.605,0.559,1.335,1.144,2.002,1.709
				c0.704,0.574,1.32,1.121,2.104,1.707l2.488,1.758c0.434,0.293,0.804,0.563,1.293,0.869l1.621,0.943
				c1.096,0.594,2.215,1.155,3.36,1.631c2.282,0.991,4.659,1.693,7.062,2.196c4.813,0.982,9.766,1.021,14.609,0.077
				c2.423-0.457,4.818-1.182,7.144-2.155c2.326-0.96,4.583-2.185,6.699-3.675c2.123-1.476,4.115-3.206,5.855-5.14
				c1.756-1.917,3.31-4.054,4.57-6.307c1.293-2.244,2.271-4.589,3.021-6.934l0.517-1.761c0.159-0.583,0.259-1.101,0.385-1.657
				l0.244-1.161l-0.927-0.85l0.794,0.732c0.669,0.611,1.343,1.179,1.99,1.722c0.658,0.548,1.304,1.118,1.974,1.647
				c2.669,2.141,5.431,4.093,8.216,5.898c2.795,1.788,5.619,3.362,8.429,4.763c5.621,2.799,11.181,4.704,16.244,5.467
				c2.53,0.374,4.914,0.417,7.144,0.17c1.126-0.103,2.19-0.332,3.243-0.595c1.033-0.314,2.021-0.689,3.092-1.051
				c0.901-0.412,1.81-0.879,2.738-1.478l0.351-0.23c0.046-0.056,0.146-0.036,0.146-0.155l0.188-0.108
				c0.26-0.132,0.481-0.32,0.711-0.493c0.441-0.354,0.852-0.702,1.218-1.041c1.461-1.347,2.491-2.675,3.435-4.194
				c1.847-2.998,3.105-6.87,3.315-11.866c0.219-4.973-0.582-10.831-1.722-16.749c-0.567-2.964-1.221-5.963-1.933-8.964l-1.097-4.502
				l-1.047-4.088c-3.282-12.458-6.976-24.542-10.755-36.478l-2.779-8.739c-0.842-2.727-1.574-5.312-2.15-7.774
				c-1.161-4.91-1.645-9.361-1.301-12.747c0.17-1.694,0.514-3.109,0.994-4.336c0.485-1.229,1.106-2.301,1.975-3.383
				c0.869-1.075,1.992-2.163,3.434-3.229c1.47-1.053,3.23-2.068,5.166-3.031l-2.152-4.517c-2.177,1.078-4.205,2.242-5.973,3.513
				c-1.741,1.286-3.197,2.67-4.373,4.127c-2.335,2.913-3.62,6.172-4.05,10.375c-0.415,4.185,0.179,9.142,1.409,14.368
				c0.613,2.621,1.38,5.318,2.241,8.111l2.79,8.771c3.768,11.9,7.439,23.917,10.685,36.238l0.915,3.562l0.945,3.859
				c0.615,2.573,1.187,5.145,1.691,7.693c1.015,5.088,1.772,10.138,1.771,14.562c0.003,4.439-0.761,8.082-2.047,11.108
				c-0.666,1.525-1.4,2.925-2.586,4.309c-0.298,0.347-0.643,0.694-1.029,1.032c-0.204,0.161-0.4,0.336-0.637,0.455l-0.171,0.098
				c-0.013,0.09-0.098,0.08-0.144,0.125l-0.328,0.191c-0.877,0.49-1.75,0.829-2.614,1.114c-3.859,1.138-7.91,1.152-12.448,0.244
				c-4.516-0.943-9.353-2.776-14.196-5.304c-4.845-2.506-9.696-5.679-14.263-9.364c-1.137-0.952-2.234-1.854-3.383-2.894
				l-0.703-0.647l0.453,0.416l0.113,0.104c0.015,0.014-0.006-0.005-0.006-0.006l-0.033-0.032l-0.266-0.256
				c-0.351-0.344-0.679-0.711-1.018-1.067c-1.341-1.438-2.689-2.87-4.086-4.254c-0.688-0.703-1.391-1.39-2.094-2.078l-1.055-1.03
				l-0.266-0.256l-0.133-0.128l-0.066-0.064c-0.012,0.001,0.003,0.053,0.004,0.077l0.09,0.732c0.382,2.954,0.682,5.917,1.009,8.878
				c0.091,0.738,0.153,1.487,0.053,2.227l-0.04,0.276l-0.01,0.069l-0.064,0.312l-0.153,0.723c-0.11,0.487-0.198,0.95-0.337,1.455
				l-0.448,1.526c-0.648,2.029-1.49,4.05-2.602,5.975c-1.081,1.935-2.412,3.764-3.918,5.407c-1.491,1.66-3.198,3.14-5.021,4.406
				c-1.815,1.28-3.756,2.333-5.763,3.16c-2.003,0.839-4.072,1.467-6.169,1.861c-4.19,0.819-8.488,0.784-12.654-0.066
				c-2.08-0.438-4.138-1.041-6.109-1.9c-0.99-0.41-1.955-0.896-2.901-1.408l-1.399-0.814c-0.429-0.268-0.768-0.517-1.153-0.779
				l-2.234-1.577c-0.71-0.529-1.288-1.045-1.936-1.573c-0.618-0.524-1.287-1.056-1.855-1.582l-1.681-1.579
				c-1.155-1.056-2.148-2.113-3.176-3.173c-1.052-1.059-1.982-2.125-2.947-3.19c-0.979-1.064-1.874-2.138-2.787-3.211l-0.623-0.73
				c-0.027-0.025-0.048-0.064-0.12-0.149l-0.352-0.434c-0.47-0.578-0.925-1.167-1.371-1.764c-0.894-1.191-1.753-2.408-2.575-3.65
				c-0.152-0.411-0.247,0.083-0.362,0.254l-0.336,0.686l-0.671,1.373c-0.444,0.915-0.893,1.83-1.374,2.745l-8.18,15.843
				l-1.774,2.824c-0.273,0.492-0.634,0.9-0.985,1.316l-1.05,1.255c-0.329,0.439-0.742,0.794-1.144,1.161l-1.202,1.102
				c-0.833,0.696-1.755,1.288-2.639,1.919c-1.878,1.106-3.884,2.02-6.014,2.507l-1.586,0.397l-1.623,0.216
				c-1.075,0.195-2.177,0.183-3.273,0.205c-4.399,0.05-8.836-1.091-13.072-2.668c-0.522-0.202-1.078-0.41-1.55-0.622l-1.315-0.585
				c-0.782-0.342-1.521-0.705-2.24-1.076c-1.477-0.728-2.846-1.508-4.205-2.298c-5.388-3.185-10.101-6.721-14.622-10.522
				c-2.258-1.917-4.432-3.884-6.641-6.098c-1.133-1.15-2.162-2.185-3.608-3.97c-0.139-0.16-0.433-0.557-0.667-0.882l-0.359-0.51
				l-0.177-0.257c-0.101-0.155-0.273-0.439-0.399-0.659c-0.271-0.472-0.521-0.958-0.746-1.453l-0.164-0.373
				c-0.182-0.511,0.182,0.618-0.442-1.242l-0.035-0.119l-0.142-0.477l-0.282-0.953l-0.143-0.489c-0.092-0.403-0.176-0.81-0.253-1.22
				c-0.154-0.819-0.279-1.649-0.373-2.478c-0.048-0.415-0.087-0.829-0.119-1.242l0.006-1.031c0.052-1.376,0.039-2.743,0.348-4.113
				c0.265-1.37,0.534-2.734,1.067-4.039c0.243-0.657,0.503-1.31,0.775-1.953c0.285-0.638,0.649-1.243,0.993-1.855
				c2.79-4.867,7.404-8.741,12.87-10.568c1.366-0.407,2.777-0.746,4.181-0.971c1.401-0.127,2.846-0.254,4.23-0.188
				c1.361,0.12,2.782,0.236,4.079,0.532c1.268,0.329,2.578,0.679,3.774,1.132c1.14,0.492,2.27,1.023,3.375,1.588
				c1.016,0.597,1.959,1.245,2.918,1.902l0.709,0.5c0.431,0.367-0.84-0.733,0.987,0.839l0.045,0.043l0.091,0.085l0.181,0.17
				l0.36,0.341l0.046,0.043l0.158,0.165l0.373,0.403c0.246,0.273,0.486,0.554,0.72,0.841c0.466,0.575,0.901,1.178,1.3,1.793
				c0.229,0.346,0.329,0.543,0.444,0.76l0.342,0.664c0.442,0.889,0.866,1.838,1.097,2.642c1.113,3.455,1.159,6.293,1.015,8.625
				c-0.155,2.382-0.549,4.427-1.036,6.274c-0.978,3.72-2.283,6.864-3.746,9.823c-2.957,5.887-6.475,11.06-10.916,15.979
				c-2.239,2.449-4.72,4.825-7.883,7.083c-0.789,0.578-1.575,1.078-2.645,1.718c-1.011,0.584-1.998,1.102-3.041,1.563
				c-2.061,0.964-4.279,1.511-6.502,1.956l-1.622,0.239c-0.495,0.059-1.006,0.147-1.488,0.173c-0.97,0.059-1.963,0.159-2.915,0.15
				c-1.923,0.025-3.813-0.073-5.671-0.305c-3.717-0.454-7.332-1.377-10.813-2.764c-3.475-1.389-6.821-3.241-9.873-5.584
				c-3.055-2.353-5.768-5.148-8.057-8.326c-2.281-3.194-3.938-6.476-5.234-9.763c-1.253-3.287-2.141-6.589-2.776-9.89
				c-0.603-3.299-0.914-6.595-1.02-9.877c-0.028-3.274,0.058-6.547,0.501-9.768c0.155-1.622,0.491-3.21,0.756-4.812
				c0.345-1.583,0.681-3.172,1.116-4.732c0.459-1.564,0.851-3.072,1.507-4.758c0.306-0.806,0.594-1.678,0.929-2.424l1.007-2.259
				c0.341-0.792,0.675-1.424,1.01-2.073l1.008-1.956c0.218-0.383,0.378-0.676,0.584-1.01c0.396-0.645,0.81-1.28,1.253-1.894
				c0.875-1.235,1.823-2.419,2.817-3.561l0.339-0.382l0.172-0.189c0.059-0.044-0.002-0.038-0.046-0.038l-0.128-0.003l-1.021-0.028
				l-2.043-0.057l-4.085-0.113l-7.354-0.204l-2.043-0.057l-1.021-0.028l-0.511-0.014l-0.256-0.007
				c-0.068,0.017-0.216-0.055-0.185,0.071c-0.088,1.231-0.209,2.46-0.348,3.687l-0.6,4.694c-0.307,2.232-0.628,4.466-0.991,6.708
				c-0.716,4.482-1.552,8.985-2.605,13.559c-1.052,4.573-2.313,9.209-4.151,14.1c-0.965,2.467-2.066,5.005-3.684,7.762l-0.641,1.046
				l-0.324,0.52l-0.394,0.557c-0.525,0.715-1.078,1.528-1.616,2.136c-1.084,1.321-2.209,2.459-3.352,3.531
				c-4.588,4.206-9.426,7.008-14.55,9.221c-0.642,0.274-1.294,0.523-1.942,0.781l-1.051,0.381l-1.341,0.459
				c-1.761,0.568-3.549,1.047-5.344,1.42c-3.593,0.736-7.226,1.08-10.739,0.875c-3.5-0.242-6.909-0.934-9.989-2.345
				c-3.097-1.348-5.913-3.418-8.086-6.019c-0.813-1.315-1.497-2.582-2.186-3.892c-0.284-0.695-0.519-1.426-0.761-2.153
				c-0.195-0.761-0.404-1.513-0.563-2.296c-0.657-3.135-0.794-6.561-0.891-9.943c-0.017-0.871-0.043-1.589-0.037-2.837l-0.006-1.086
				c-0.002-0.072,0-0.145,0.006-0.217l0.016-0.853l0.057-1.705c0.099-2.272,0.257-4.541,0.451-6.806l0.011-0.12l-0.099,0.068
				l-0.197,0.138l-0.396,0.275l-0.793,0.548l-1.591,1.09l-3.203,2.15l-1.615,1.056l-4.974,3.151l-3.128,1.922
				c-1.658,1-3.325,1.962-5.003,2.889c-1.681,0.923-3.38,1.783-5.093,2.49c-1.713,0.752-3.439,1.067-5.147,1.477
				c-2.198,0.321-4.653,0.348-6.952,0.127c-2.324-0.192-4.61-0.646-6.786-1.396c-4.38-1.414-8.334-4.12-11.232-7.686
				c-2.931-3.558-4.707-7.926-5.568-12.558c-0.403-2.333-0.524-4.749-0.488-7.185c0.113-2.446,0.369-4.915,0.883-7.37
				c0.244-1.226,0.571-2.445,0.887-3.661c0.337-1.174,0.766-2.53,1.091-3.392c0.626-1.796,1.371-3.508,2.148-5.202
				c0.807-1.673,1.657-3.319,2.601-4.902l0.707-1.186l0.66-0.986l1.322-1.972l2.648-3.94c0.885-1.308,1.768-2.659,2.665-3.836
				l5.367-7.308c1.778-2.465,3.607-4.801,5.423-7.172l5.452-7.099l11.039-13.981c7.416-9.265,14.848-18.434,22.431-27.605
				L80.027,26.814z"/>
		</g>
	</g>
</g>
<g>
	<circle fill="#7C2142" cx="225.833" cy="151.313" r="10.164"/>
</g>
</svg>
